<?xml version="1.0" encoding="UTF-8"?>
<svg id="Layer_1" data-name="Layer 1" xmlns="http://www.w3.org/2000/svg" viewBox="0 0 182.88 520">
  <defs>
    <style>
      .cls-1, .cls-2 {
        fill: #fff;
      }

      .cls-3 {
        fill: #ec1c24;
      }

      .cls-3, .cls-2, .cls-4 {
        stroke-miterlimit: 10;
      }

      .cls-3, .cls-4 {
        stroke: #ec1c24;
      }

      .cls-2 {
        stroke: #fff;
      }

      .cls-4 {
        fill: #c70000;
        stroke-width: 4px;
      }
    </style>
  </defs>
  <rect width="182.88" height="520"/>
  <path class="cls-1" d="m110.66,23.88s-23.61,67.46-28.69,116.73c0,0-9.8,4.88-1.41,11.4,0,0-16.12,77.61-14.46,81.49,0,0-2.4,26.89,21.46,14.55,23.86-12.35,11.09-19.28,11.62-28.82s1.76-22.76,9.33-36.46c0,0,2.67-1.42-1.41-5.71-4.08-4.29-.74-21.58,3.79-21.41s16.49,4.94,16.49,4.94c0,0,14.16-2.47,1.22-9.39-12.94-6.92-17.29-7.56-17.29-7.56,0,0,15.02-51.69,13.22-78.04s-8.08-33.1-13.87-41.71Z"/>
  <path class="cls-2" d="m82.61,47.18c1.89,1.9-3.45-10.16-5.03-12.33s-5.03-5.45-8.95-6.13-4-2.24-12.09.75c-8.09,2.99-12.33,11.13-12.96,16.74s.24,10.91.24,10.91c1.65,5.38,2.83,6.72,5.42,13.15,2.59,6.43,4.79,5.53,5.89,7.92s-1.02,2.39-2.12,1.49-3.38-3.14-6.2-7.92-5.54-14.42-5.54-14.42c-1.26-15.47,1.96-17.93,4.12-22.19s12.48-14.31,23.24-10.39,12.68,8.63,14.53,11.73,1.88,8.33,2.2,12.66c.31,4.33-3.89,9.97-3.89,9.97,0,0-6.95,4.03-3.65,9.94,3.3,5.9,11.31,18.01-.31,22.71-11.62,4.71-7.22-8.89-9.66-12.1s-11.31-5.16-2.67-13.08c8.64-7.92,13.66-8.74,13.51-10.16s7.93-9.04-5.89-13.08-14.92,13.08-14.92,13.08c0,0-1.26,4.33-3.14.3s1.88-11.81,6.52-16.14,15.86,1.05,21.36,6.58Z"/>
  <path class="cls-3" d="m95.71,100.03l-4.47,15.67s-2.02,5.14,2.23,10.41c4.25,5.26,8.29,0,8.29,0,0,0,3.6-4.65,2.16-9.06-1.44-4.41-7.21-21.55-7.21-21.55l-1.01,4.53Z"/>
  <path class="cls-3" d="m88.76,142.84l-2.03,6.77s-.92,2.22,1.02,4.5,3.77,0,3.77,0c0,0,1.64-2.01.98-3.92s-3.28-9.31-3.28-9.31l-.46,1.96Z"/>
  <path class="cls-3" d="m99.19,177.91l-2.03,6.77s-.92,2.22,1.02,4.5c1.93,2.28,3.77,0,3.77,0,0,0,1.64-2.01.98-3.92s-3.28-9.31-3.28-9.31l-.46,1.96Z"/>
  <path class="cls-3" d="m85.7,226.04l-2.03,6.77s-.92,2.22,1.02,4.5,3.77,0,3.77,0c0,0,1.64-2.01.98-3.92s-3.28-9.31-3.28-9.31l-.46,1.96Z"/>
  <path class="cls-1" d="m101.33,59.56l1.26-.75s.16.52.39-1.49,0-15.39,0-15.39c.08-.6-4.08-15.62-8.4-19.87-4.32-4.26-8.56-7.92-12.48-9.34s-16.6-4.89-28.82,1.57c0,0-15.94,7.62-19.32,21.67s-2.36,23.31-.79,28.77,10.13,21.97,14.53,25.48,10.76,11.66,12.25,14.35,3.53,5.53,6.52,8.22,5.18,3.59,7.69,4.11,15.08,2.69,19.79-6.28c0,0,3.61-4.18,3.69-14.72,0,0-.39-2.99-2.04-.37s-2.43,9.64-2.43,9.64c0,0-1.33,3.21-2.98,4.86s-3.93,3.96-6.12,4.26-8.87.75-11.86-1.42-9.58-7.55-11.31-13.22c0,0-2.83-3.81-8.64-10.01s-6.28-6.5-9.11-11.66-2.67-3.59-5.03-10.68c-2.36-7.1-2.98-7.17-2.75-14.57s-.24-8.89,2.04-16.29c2.28-7.4,7.22-11.95,10.21-13.9s3.69-4.11,11.54-6.28c0,0,13.9-4.56,22.61.67s19.55,42.66,19.55,42.66Z"/>
  <path class="cls-1" d="m143.89,283.35s-42.38,57.55-61.71,103.15c0,0-10.8,1.79-4.7,10.48,0,0-38.2,69.45-37.76,73.64,0,0-10.2,25,16.24,20.21s16.26-15.17,19.57-24.13,8.37-21.24,19.63-32.11c0,0,2.97-.58.33-5.87-2.64-5.3,5.63-20.85,9.91-19.35,4.28,1.5,14.31,9.57,14.31,9.57,0,0,14.26,1.8,3.93-8.61-10.34-10.41-14.3-12.31-14.3-12.31,0,0,29.54-45,35.56-70.72s2-34.02-1.01-43.95Z"/>
  <path class="cls-2" d="m54.73,338.46c2.51.94-7.37-7.8-9.7-9.12s-6.84-2.87-10.69-1.85-4.57-.37-10.69,5.71c-6.11,6.08-6.58,15.25-4.82,20.61s4.75,9.82,4.75,9.82c3.74,4.21,5.37,4.94,10.4,9.71,5.03,4.77,6.66,3.04,8.65,4.75s.07,2.6-1.31,2.24-4.38-1.45-8.93-4.62-11.03-10.81-11.03-10.81c-7.57-13.54-5.67-17.12-5.48-21.9s5.4-18.2,16.82-19.11,15.12,2.57,18.09,4.63,5.18,6.79,7.27,10.6c2.09,3.81.61,10.69.61,10.69,0,0-4.64,6.56.81,10.56,5.45,4,17.77,11.67,9.16,20.79-8.61,9.11-10.27-5.08-13.82-6.99s-12.43.01-7.87-10.78c4.56-10.79,8.79-13.63,8.06-14.86s3.45-11.52-10.79-9.44-8.13,18.1-8.13,18.1c0,0,.66,4.46-2.73,1.58s-3.2-11.52-.79-17.39,14.86-5.65,22.16-2.9Z"/>
  <path class="cls-3" d="m109.64,427.97l-4.47,15.67s-2.02,5.14,2.23,10.41c4.25,5.26,8.29,0,8.29,0,0,0,3.6-4.65,2.16-9.06-1.44-4.41-7.21-21.55-7.21-21.55l-1.01,4.53Z"/>
  <path class="cls-3" d="m96.12,464.11l-2.03,6.77s-.92,2.22,1.02,4.5c1.93,2.28,3.77,0,3.77,0,0,0,1.64-2.01.98-3.92s-3.28-9.31-3.28-9.31l-.46,1.96Z"/>
  <path class="cls-3" d="m113.24,502.97l-2.03,6.77s-.92,2.22,1.02,4.5c1.93,2.28,3.77,0,3.77,0,0,0,1.64-2.01.98-3.92s-3.28-9.31-3.28-9.31l-.46,1.96Z"/>
  <path class="cls-3" d="m79.56,502.97l-2.03,6.77s-.92,2.22,1.02,4.5,3.77,0,3.77,0c0,0,1.64-2.01.98-3.92s-3.28-9.31-3.28-9.31l-.46,1.96Z"/>
  <path class="cls-1" d="m76.9,341.93l.83-1.2s.36.41-.26-1.52-6.4-14-6.4-14c-.18-.58-10.21-12.5-15.91-14.58s-11.08-3.64-15.24-3.3-17.13,2.45-25.55,13.41c0,0-11.33,13.56-8.55,27.74s7.55,22.18,11.25,26.49c3.7,4.31,18.35,15.76,23.81,17.13s14.63,6.13,17.11,7.95,5.51,3.56,9.34,4.76c3.83,1.21,6.2,1.11,8.71.54s14.83-3.82,15.38-13.94c0,0,1.54-5.31-2.77-14.92,0,0-1.6-2.55-2.01.51s1.79,9.78,1.79,9.78c0,0,.12,3.48-.69,5.66s-1.92,5.23-3.8,6.42-7.76,4.37-11.37,3.64-11.85-2.88-15.78-7.32c0,0-4.16-2.29-12.02-5.51s-8.42-3.3-13.13-6.81c-4.71-3.51-3.92-2.15-9.01-7.63-5.09-5.48-5.7-5.28-8.56-12.11s-3.91-7.99-4.92-15.66c-1.01-7.67,1.6-13.88,3.5-16.88,1.91-3.01,1.65-5.27,7.89-10.51,0,0,10.74-9.92,20.84-8.79,10.1,1.13,35.52,30.67,35.52,30.67Z"/>
  <path class="cls-4" d="m86.74,409.53c.07-.33.03-.68-.03-1.35-.06-.67-.14-1.07-.28-2-.14-.93-.22-1.53-.42-2.64-.2-1.1-.31-1.71-.57-2.88-.26-1.17-.41-1.81-.75-2.97-.33-1.16-.53-1.78-.92-2.84-.4-1.06-.62-1.61-1.06-2.48s-.68-1.28-1.11-1.89c-.44-.61-.65-.88-1.07-1.17-.42-.29-.64-.43-1.03-.3s-.71.44-.95.96c-.23.52-.28.9-.22,1.65.06.75.19,1.15.52,2.08.33.93.57,1.48,1.12,2.59.55,1.11.91,1.75,1.65,2.97.74,1.22,1.18,1.89,2.06,3.12.88,1.23,1.39,1.88,2.35,3.05.96,1.17,1.5,1.76,2.46,2.8s1.47,1.53,2.36,2.38c.89.84,1.35,1.22,2.1,1.83.76.61,1.11.86,1.68,1.22.57.35.76.56,1.17.55.4,0,.63-.21.86-.59.22-.38.3-.72.26-1.31-.04-.59-.23-.88-.46-1.64-.24-.77-.44-1.23-.73-2.19-.29-.97-.48-1.54-.74-2.64-.26-1.11-.39-1.73-.56-2.88-.17-1.15-.24-1.77-.29-2.85-.05-1.08-.04-1.64.04-2.55.08-.91.17-1.35.36-1.99.18-.64.29-.85.56-1.19.27-.34.38-.42.78-.52.41-.1.69-.1,1.25.04.56.14.89.3,1.53.64.64.33,1,.61,1.66,1.02.67.41,1.02.69,1.67,1.04.65.35.97.55,1.57.7.61.15.9.23,1.47.06.57-.17.88-.35,1.36-.91.48-.55.71-.99,1.04-1.86.33-.86.45-1.39.62-2.47.17-1.08.29-2.39.23-2.92-.06-.53-.37-.35-.53.27-.16.63-.1,1.85-.27,2.86-.16,1.01-.29,1.49-.55,2.21-.27.72-.42.97-.77,1.38-.35.41-.52.55-.98.69-.46.14-.76.14-1.33.02-.58-.12-.91-.3-1.55-.63-.64-.33-.99-.61-1.65-1.03-.66-.42-1-.72-1.64-1.09-.63-.37-.95-.59-1.53-.77-.59-.18-.87-.27-1.4-.12-.53.15-.85.36-1.27.88-.41.53-.57.97-.79,1.76-.22.78-.25,1.22-.3,2.17-.06.95-.04,1.5.03,2.59.07,1.09.14,1.72.32,2.87.17,1.16.31,1.79.55,2.92.25,1.13.42,1.72.68,2.73.26,1.01.42,1.52.61,2.31.19.79.25,1.19.35,1.65.1.45.21.5.17.62-.03.12-.04.05-.34-.02-.3-.07-.59-.05-1.17-.33-.58-.28-.95-.51-1.73-1.08-.77-.57-1.23-.94-2.13-1.76-.9-.82-1.41-1.32-2.37-2.34-.97-1.03-1.5-1.62-2.46-2.79-.96-1.17-1.46-1.82-2.33-3.06s-1.31-1.92-2.03-3.15c-.72-1.23-1.07-1.88-1.58-3.02-.52-1.14-.73-1.72-1-2.67-.27-.95-.3-1.44-.35-2.09-.06-.64,0-.86.08-1.13.08-.27.08-.23.31-.24.23,0,.45-.04.84.2.39.24.65.43,1.1.98.45.56.7.95,1.14,1.79.44.84.67,1.38,1.07,2.43s.59,1.66.92,2.82.47,1.8.71,2.97.34,1.79.51,2.91c.17,1.12.23,1.75.34,2.69.11.95.13,1.39.21,2.04.08.65.08,1.03.2,1.2.12.18.33.01.41-.32"/>
  <path class="cls-4" d="m106.31,374.49c-.16.06-.33.2-.59.58s-.49.67-.68,1.32c-.19.65-.25,1.09-.29,1.92-.04.83-.02,1.31.09,2.23.11.93.21,1.49.47,2.4.26.92.44,1.43.85,2.17.41.74.67,1.1,1.2,1.53.53.42.84.57,1.46.58.61,0,.98-.11,1.6-.54.62-.42.98-.8,1.52-1.59.54-.78.8-1.32,1.18-2.33.38-1.01.54-1.62.72-2.72.18-1.1.23-1.72.19-2.79-.03-1.07-.11-1.64-.36-2.56-.25-.92-.45-1.37-.9-2.04s-.75-.96-1.35-1.32c-.6-.36-.97-.45-1.64-.49-.67-.04-1.05.06-1.71.29-.65.23-1,.47-1.55.86-.55.39-.84.67-1.21,1.11-.37.44-.48.74-.64,1.11-.16.37-.17.55-.17.75,0,.2.08.23.15.24s.15-.12.21-.19,0-.06.07-.16c.06-.1.09-.15.24-.36.14-.21.2-.35.48-.7.28-.35.47-.65.93-1.04.46-.39.78-.65,1.37-.9.59-.25.95-.36,1.58-.35.63.01.99.08,1.56.41.57.33.86.6,1.29,1.23.43.64.62,1.07.86,1.95.24.88.3,1.44.32,2.46s-.04,1.62-.22,2.65c-.18,1.03-.35,1.59-.69,2.5-.35.9-.58,1.34-1.03,2.01-.45.66-.71.95-1.23,1.31-.52.36-.81.5-1.35.5-.54,0-.84-.1-1.34-.48-.5-.38-.76-.72-1.15-1.44-.39-.71-.57-1.22-.8-2.12-.24-.9-.32-1.47-.38-2.38-.06-.91-.04-1.41.06-2.16.1-.75.27-1.11.44-1.61.17-.5.28-.58.41-.9.13-.32.25-.5.25-.69,0-.19-.07-.32-.24-.26"/>
  <path class="cls-4" d="m111.45,362.43c.05.21.19.29.5.51.31.22.56.28,1.03.58.47.3.78.52,1.32.92.54.41.84.67,1.37,1.12.53.45.81.73,1.29,1.13.48.39.7.66,1.11.84.41.18.62.25.96.05.34-.19.59-.49.74-1.01.16-.52.12-.85.04-1.58-.08-.73-.23-1.15-.43-2.09-.2-.94-.36-1.51-.57-2.59-.21-1.08-.33-1.72-.49-2.83s-.24-1.71-.3-2.7c-.06-.99-.06-1.51-.01-2.25.05-.74.14-1.06.25-1.44.11-.38.09-.38.29-.45.2-.08.35-.05.73.07.38.12.67.23,1.17.53.5.3.8.54,1.32.95.52.41.8.7,1.27,1.08.48.38.69.64,1.11.81.42.17.63.24,1,.04.37-.2.62-.49.84-1.04.22-.54.24-.91.26-1.68.02-.77-.06-1.2-.14-2.15-.08-.95-.17-1.52-.27-2.59-.1-1.07-.17-1.69-.24-2.77-.07-1.08-.11-1.65-.11-2.61,0-.95.04-1.46.12-2.16.07-.7.14-1,.25-1.33.11-.33.08-.29.28-.32.2-.03.36.01.73.17.37.15.63.31,1.14.6.51.29.82.54,1.39.86.58.32.89.53,1.49.75.59.21.89.35,1.48.32.6-.03.92-.09,1.5-.46.59-.38.9-.69,1.43-1.41.52-.72.76-1.19,1.18-2.21.42-1.01.62-1.62.93-2.87.31-1.24.44-1.97.61-3.34.18-1.37.23-2.15.28-3.53.04-1.39.04-2.15-.06-3.41-.1-1.26-.19-1.9-.41-2.89-.22-1-.37-1.46-.7-2.1-.33-.65-.52-.91-.96-1.13-.44-.21-.73-.22-1.24.06-.5.28-.84.63-1.28,1.32-.44.69-.66,1.2-.94,2.15-.28.95-.4,1.54-.48,2.61-.08,1.07-.08,1.71.07,2.73.15,1.02.28,1.59.67,2.38.39.8.65,1.2,1.29,1.6.64.4,1.04.53,1.89.4.85-.13,1.36-.32,2.38-1.06,1.02-.74,1.62-1.34,2.73-2.65,1.12-1.31,1.8-2.35,2.85-3.89,1.05-1.54,1.59-2.49,2.38-3.83.79-1.33,1.3-2.24,1.57-2.84.27-.6.13-.68-.23-.15-.36.53-.77,1.5-1.55,2.81-.78,1.32-1.33,2.26-2.36,3.77-1.03,1.52-1.71,2.55-2.79,3.81-1.08,1.27-1.65,1.82-2.62,2.52-.97.69-1.43.84-2.22.95-.79.11-1.15-.02-1.74-.4-.59-.39-.84-.76-1.2-1.53-.36-.77-.48-1.32-.6-2.3-.12-.98-.11-1.61,0-2.61.1-1,.25-1.56.51-2.39.26-.83.47-1.21.79-1.74.33-.53.49-.7.84-.91.35-.21.55-.28.92-.12s.59.34.92.91c.33.57.49,1.01.73,1.96.23.95.33,1.58.43,2.81.1,1.23.1,1.99.05,3.35-.05,1.37-.11,2.14-.3,3.48-.19,1.35-.33,2.06-.65,3.25s-.53,1.77-.93,2.69c-.4.92-.62,1.29-1.05,1.89-.44.6-.65.81-1.13,1.12-.48.31-.74.39-1.27.41-.53.03-.82-.07-1.39-.28-.56-.21-.88-.41-1.43-.76-.55-.35-.83-.63-1.33-.97-.49-.34-.7-.6-1.14-.75-.44-.15-.68-.2-1.07,0-.39.21-.64.5-.89,1.05-.24.55-.26.91-.33,1.69-.07.78-.05,1.24-.02,2.2.02.96.07,1.54.14,2.62.07,1.08.13,1.71.21,2.8.08,1.09.14,1.69.18,2.65.04.96.04,1.46.02,2.15-.02.68-.07.95-.13,1.27-.06.32-.02.29-.19.32-.17.02-.31-.02-.67-.19-.36-.17-.64-.32-1.11-.67-.48-.35-.76-.65-1.27-1.08-.51-.43-.79-.71-1.29-1.06-.5-.35-.74-.57-1.2-.67-.46-.1-.72-.1-1.12.17-.39.27-.63.59-.85,1.18-.22.58-.22.94-.25,1.74-.03.8.02,1.28.11,2.28.09,1,.18,1.59.34,2.71.16,1.11.28,1.76.46,2.87.19,1.11.32,1.71.47,2.68.15.96.23,1.46.29,2.14.07.67.05.95.04,1.23,0,.28.07.2-.07.19-.14-.01-.29-.07-.64-.26s-.65-.32-1.14-.67c-.49-.35-.78-.63-1.31-1.08-.53-.45-.82-.74-1.34-1.19-.52-.45-.82-.7-1.27-1.05-.45-.35-.64-.55-.99-.7-.35-.16-.54-.17-.74-.08-.2.09-.31.32-.27.53"/>
</svg>