<?xml version="1.0" encoding="utf-8"?>
<!-- Generator: Adobe Illustrator 27.4.0, SVG Export Plug-In . SVG Version: 6.00 Build 0)  -->
<svg version="1.1" xmlns="http://www.w3.org/2000/svg" xmlns:xlink="http://www.w3.org/1999/xlink" x="0px" y="0px"
	 viewBox="0 0 92.8 141.2" style="enable-background:new 0 0 92.8 141.2;" xml:space="preserve">
<style type="text/css">
	.st0{fill:#FFFFFF;}
	.st1{fill:#FFFFFF;stroke:#FFFFFF;stroke-miterlimit:10;}
	.st2{fill:#EB2127;stroke:#EB2127;stroke-miterlimit:10;}
</style>
<g id="Background">
	<rect x="0.1" width="92.8" height="141.2"/>
</g>
<g id="Ear_x2F_Knife">
	<path class="st0" d="M55.8,12.6c0,0-12.2,35.2-14.8,60.9c0,0-5,2.6-0.7,5.9c0,0-8.3,40.5-7.5,42.6c0,0-1.2,14,11.1,7.6
		s5.7-10.1,6-15.1s0.9-11.9,4.8-19c0,0,1.4-0.7-0.7-3s-0.4-11.3,2-11.2s8.5,2.6,8.5,2.6s7.3-1.3,0.6-4.9c-6.7-3.6-8.9-3.9-8.9-3.9
		s7.7-27,6.8-40.8C62,20.6,58.7,17.1,55.8,12.6L55.8,12.6z"/>
	<path class="st1" d="M41.3,24.8c1,1-1.8-5.3-2.6-6.4s-2.6-2.9-4.6-3.2S32,14,27.9,15.5s-6.4,5.8-6.7,8.7s0.1,5.7,0.1,5.7
		c0.9,2.8,1.5,3.5,2.8,6.9s2.5,2.9,3,4.1s-0.5,1.2-1.1,0.8s-1.7-1.6-3.2-4.1S20,30.1,20,30.1c-0.6-8.1,1-9.4,2.1-11.6
		s6.4-7.5,12-5.4s6.5,4.5,7.5,6.1s1,4.4,1.1,6.6s-2,5.2-2,5.2s-3.6,2.1-1.9,5.2s5.8,9.4-0.2,11.9s-3.7-4.6-5-6.3s-5.8-2.7-1.4-6.8
		s7-4.6,7-5.3s4.1-4.7-3-6.8s-7.7,6.8-7.7,6.8s-0.6,2.3-1.6,0.2s1-6.2,3.4-8.4S38.5,21.9,41.3,24.8L41.3,24.8z"/>
	<path class="st0" d="M50.9,31.2l0.7-0.4c0,0,0.1,0.3,0.2-0.8s0-8,0-8c0-0.3-2.1-8.1-4.3-10.4S43,7.5,41,6.8s-8.5-2.6-14.9,0.8
		c0,0-8.2,4-10,11.3s-1.2,12.2-0.4,15c0.8,2.8,5.2,11.5,7.5,13.3s5.5,6.1,6.3,7.5s1.8,2.9,3.4,4.3c1.5,1.4,2.7,1.9,4,2.2
		s7.8,1.4,10.2-3.3c0,0,1.9-2.2,1.9-7.7c0,0-0.2-1.6-1-0.2s-1.2,5-1.2,5s-0.7,1.7-1.5,2.5s-2,2.1-3.2,2.2s-4.6,0.4-6.1-0.7
		s-4.9-3.9-5.8-6.9c0,0-1.5-2-4.4-5.2s-3.2-3.4-4.7-6.1s-1.4-1.9-2.6-5.6s-1.5-3.8-1.4-7.6s-0.1-4.6,1-8.5s3.7-6.2,5.3-7.3
		s1.9-2.1,5.9-3.3c0,0,7.2-2.4,11.7,0.4S50.9,31.2,50.9,31.2L50.9,31.2z"/>
</g>
<g id="Blood">
	<path class="st2" d="M47.4,51l-2.3,8.2c0,0-1,2.7,1.2,5.4s4.3,0,4.3,0s1.9-2.4,1.1-4.7s-3.7-11.2-3.7-11.2S47.4,51,47.4,51z"/>
	<path class="st2" d="M43.8,73.3l-1,3.5c0,0-0.5,1.2,0.5,2.3s1.9,0,1.9,0s0.8-1.1,0.5-2s-1.7-4.9-1.7-4.9L43.8,73.3L43.8,73.3z"/>
	<path class="st2" d="M49.2,91.6l-1,3.5c0,0-0.5,1.2,0.5,2.3s1.9,0,1.9,0s0.8-1.1,0.5-2s-1.7-4.9-1.7-4.9L49.2,91.6L49.2,91.6z"/>
	<path class="st2" d="M42.3,116.7l-1,3.5c0,0-0.5,1.2,0.5,2.3s1.9,0,1.9,0s0.8-1.1,0.5-2s-1.7-4.9-1.7-4.9L42.3,116.7L42.3,116.7z"
		/>
</g>
</svg>
