<?xml version="1.0" encoding="UTF-8"?>
<svg id="canvas" xmlns="http://www.w3.org/2000/svg" viewBox="0 0 1254.91 102.51">
  <defs>
    <style>
      .cls-1 {
        fill: none;
        stroke: #fff;
      }
    </style>
  </defs>
  <path class="cls-1" d="m23.99,28.05c-.45-.51-1-.73-2.16-.9-1.17-.17-2-.2-3.66.04-1.66.25-2.78.57-4.65,1.17s-2.91,1.02-4.69,1.84c-1.78.81-2.79,1.19-4.2,2.23-1.42,1.03-2.17,1.64-2.88,2.94-.72,1.31-.92,2.16-.71,3.6.21,1.44.54,2.21,1.73,3.6,1.19,1.39,2.18,2.12,4.22,3.35,2.05,1.24,3.55,1.78,5.99,2.82,2.44,1.04,3.98,1.45,6.23,2.38,2.24.93,3.43,1.35,4.99,2.26,1.56.92,2.18,1.39,2.82,2.31.64.91.67,1.34.38,2.27s-.75,1.33-1.83,2.37c-1.08,1.03-1.86,1.68-3.57,2.8-1.72,1.11-2.89,1.71-4.98,2.78-2.09,1.07-3.36,1.71-5.46,2.57-2.1.87-3.36,1.21-5.04,1.75-1.68.55-2.45.68-3.37.96-.91.27-1.01.31-1.2.43-.18.13.13.23.28.2.15-.04.6-.06.48-.39-.12-.34-.64-1.2-1.06-1.28-.43-.08-.93.31-1.07.88-.13.57-.15,1.32.37,1.96.53.64.95,1.01,2.25,1.25,1.3.24,2.25.27,4.24-.04,1.99-.31,3.38-.69,5.72-1.52,2.34-.83,3.68-1.45,5.98-2.62,2.29-1.16,3.62-1.76,5.51-3.21,1.89-1.44,2.8-2.35,3.95-4.02,1.15-1.66,1.58-2.56,1.81-4.29.23-1.73.12-2.71-.68-4.37-.8-1.66-1.59-2.48-3.3-3.91-1.72-1.43-3.01-2-5.29-3.22-2.29-1.21-3.78-1.77-6.15-2.86-2.36-1.08-3.75-1.66-5.68-2.56s-2.85-1.31-3.96-1.96c-1.12-.64-1.39-.79-1.6-1.28-.21-.49-.04-.67.55-1.17.58-.51,1.14-.81,2.38-1.36,1.24-.56,2.15-.89,3.81-1.43s2.73-.78,4.48-1.28c1.75-.49,2.82-.74,4.29-1.22,1.46-.47,2.08-.71,3.04-1.15.96-.45,1.43-.54,1.77-1.09.33-.54.36-1.12-.08-1.63"/>
  <path class="cls-1" d="m56.58,46.49c.61-.23.98-.68,1.29-1.57.32-.89.58-1.6.28-2.88s-.69-2.33-1.77-3.52c-1.08-1.18-1.9-1.74-3.62-2.4s-2.86-.92-4.99-.91c-2.14.01-3.43.21-5.69.96-2.27.75-3.59,1.3-5.63,2.78-2.04,1.48-3.17,2.61-4.58,4.61-1.42,2.01-2.02,3.28-2.5,5.41-.49,2.13-.49,3.31.07,5.25.56,1.94,1.21,3.04,2.73,4.47,1.51,1.43,2.65,2.04,4.85,2.69,2.2.66,3.65.74,6.15.58,2.5-.15,3.97-.48,6.35-1.34,2.37-.85,3.57-1.49,5.55-2.93,1.97-1.43,3-2.33,4.34-4.24,1.33-1.92,1.9-3.18,2.32-5.34.42-2.15.33-3.43-.24-5.43-.56-1.99-1.19-3.1-2.59-4.56-1.41-1.45-2.6-2.12-4.43-2.71-1.82-.58-3.14-.59-4.69-.21-1.56.38-2.59,1.37-3.08,2.12-.5.74-.09,1.31.61,1.6s1.7-.22,2.88-.17c1.19.06,1.83.05,3.03.46,1.19.42,2.02.73,2.97,1.62.94.9,1.38,1.56,1.74,2.86.37,1.3.43,2.16.09,3.65-.34,1.5-.73,2.42-1.79,3.82-1.05,1.41-1.86,2.13-3.48,3.21-1.62,1.08-2.65,1.54-4.63,2.18-1.98.63-3.24.83-5.26,1-2.02.17-3.17.16-4.83-.16s-2.41-.62-3.47-1.44-1.51-1.46-1.83-2.65c-.31-1.2-.27-1.89.24-3.33.5-1.43,1.1-2.37,2.3-3.85,1.21-1.49,2.09-2.44,3.73-3.58,1.64-1.14,2.7-1.54,4.47-2.12,1.77-.58,2.82-.71,4.39-.78,1.57-.06,2.39.11,3.46.46,1.06.35,1.33.67,1.85,1.28.52.61.54,1.15.76,1.79.21.64.13.83.31,1.41s.1,1.11.57,1.5c.47.38,1.15.64,1.77.41"/>
  <path class="cls-1" d="m81.16,38.96c-.56.43-.8.98-1.19,2.22-.39,1.24-.54,2.21-.74,3.97-.21,1.77-.22,2.86-.29,4.86-.08,1.99-.21,3.32-.09,5.12.12,1.79.26,2.79.69,3.86.42,1.07.78,1.33,1.42,1.49.64.15,1.17.06,1.78-.7.61-.76.91-1.49,1.28-3.1.37-1.6.29-2.8.57-4.95.28-2.14.34-3.55.82-5.79.49-2.24.79-3.44,1.62-5.4.82-1.97,1.43-2.91,2.51-4.43,1.09-1.52,1.68-2.27,2.9-3.19,1.22-.92,1.78-1.12,3.19-1.41,1.41-.3,2.29-.21,3.87-.07,1.58.14,2.43.45,4.03.76s2.59.64,3.98.8c1.39.16,2.27.27,2.97-.01.69-.28.89-.72.53-1.4-.37-.69-1.06-1.29-2.37-2.02-1.3-.74-2.38-1.22-4.17-1.65-1.8-.44-2.87-.52-4.81-.52-1.95,0-3.04.03-4.91.55-1.87.52-2.76.88-4.42,2.04-1.67,1.15-2.48,1.98-3.9,3.74-1.42,1.75-2.1,2.83-3.21,5.03-1.12,2.19-1.57,3.49-2.37,5.93-.79,2.44-1.23,3.92-1.61,6.26-.38,2.33-.44,3.67-.3,5.4.15,1.72.53,2.43,1.03,3.24.51.8.91.9,1.49.78.58-.12.99-.36,1.41-1.38s.46-1.98.68-3.73.32-3.04.43-5.02c.11-1.97.15-3.08.11-4.86-.04-1.77-.06-2.74-.32-4.01-.26-1.27-.47-1.86-.99-2.34-.52-.48-1.06-.49-1.62-.07"/>
  <path class="cls-1" d="m119.19,42.74c-.71.41-1.16,1.32-1.81,2.56-.64,1.24-.93,2.03-1.41,3.65-.49,1.62-.81,2.87-1.01,4.45-.2,1.58-.2,2.42,0,3.44.2,1.01.53,1.4.99,1.66.47.26.88.22,1.33-.36.45-.58.63-1.12.91-2.54.29-1.41.26-2.51.52-4.54.27-2.04.27-3.46.82-5.65.54-2.19.95-3.47,1.9-5.3.96-1.83,1.63-2.65,2.89-3.85,1.26-1.21,2.02-1.59,3.42-2.17,1.41-.57,2.16-.62,3.62-.71,1.47-.08,2.33.19,3.72.3,1.39.11,2.12.22,3.24.26,1.11.03,1.76.21,2.33-.07.57-.27.83-.69.54-1.31-.29-.63-.84-1.24-1.98-1.83-1.13-.59-2.03-.89-3.67-1.13-1.64-.23-2.7-.26-4.53-.03-1.84.22-2.81.4-4.65,1.17s-2.84,1.23-4.56,2.67c-1.72,1.44-2.65,2.4-4.03,4.52-1.39,2.11-2.02,3.56-2.91,6.05-.89,2.48-1.24,4.03-1.55,6.36-.32,2.33-.33,3.63-.01,5.3.31,1.67.84,2.35,1.56,3.03.73.68,1.33.6,2.07.37.74-.23,1.05-.58,1.62-1.52.57-.93.81-1.64,1.24-3.14.42-1.5.61-2.73.88-4.34.26-1.62.38-2.38.44-3.73.06-1.36.24-2.33-.15-3.04-.38-.72-1.05-.94-1.77-.53"/>
  <path class="cls-1" d="m154.62,30.07c-.51.1-.82.33-1.14.94-.32.61-.51,1.11-.46,2.11.06,1,.25,1.65.74,2.88.48,1.23.82,1.98,1.7,3.28.88,1.31,1.45,2.12,2.69,3.24,1.24,1.13,1.99,1.73,3.51,2.39,1.51.67,2.37.88,4.07.93,1.69.05,2.64-.11,4.4-.69,1.75-.58,2.74-1.09,4.35-2.22,1.61-1.13,2.42-1.96,3.72-3.43,1.3-1.47,1.92-2.37,2.78-3.93.86-1.56,1.37-2.54,1.51-3.85.15-1.31-.2-2.16-.78-2.7-.59-.54-1.3-.59-2.15-.01-.86.58-1.35,1.11-2.13,2.92-.78,1.8-1.2,3.15-1.76,6.1-.57,2.95-.62,4.97-1.07,8.66-.45,3.69-.68,5.81-1.19,9.78-.52,3.97-.74,6.09-1.39,10.08-.64,3.99-.99,6.17-1.85,9.86-.85,3.69-1.39,5.54-2.42,8.59-1.02,3.05-1.6,4.4-2.69,6.66-1.1,2.26-1.65,3.27-2.78,4.63-1.14,1.35-1.7,1.72-2.91,2.14-1.2.43-1.86.36-3.13-.02-1.27-.39-2.03-.82-3.23-1.9-1.19-1.08-1.98-1.82-2.76-3.52s-1.19-2.65-1.14-4.99c.05-2.33.14-3.75,1.41-6.67,1.27-2.92,2.38-4.83,4.93-7.94,2.55-3.11,4.45-4.85,7.8-7.62,3.36-2.77,5.44-4.07,8.96-6.22,3.53-2.16,5.51-3.09,8.67-4.55,3.17-1.46,4.76-1.8,7.15-2.77,2.39-.98,3.31-1.4,4.81-2.12,1.5-.73,2.21-.98,2.69-1.5s.39-.91-.3-1.1c-.7-.2-1.47-.17-3.17.11-1.7.27-2.82.35-5.33,1.26-2.51.91-4.02,1.66-7.22,3.3-3.21,1.65-5.19,2.66-8.8,4.94-3.61,2.27-5.74,3.58-9.27,6.43s-5.54,4.57-8.37,7.83c-2.83,3.26-4.18,5.16-5.78,8.46-1.6,3.29-2.06,5.04-2.21,8.01-.15,2.97.38,4.49,1.45,6.84,1.07,2.35,2.09,3.49,3.88,4.91,1.79,1.43,3.05,1.87,5.06,2.23,2,.35,3.09.21,4.95-.45,1.85-.66,2.72-1.23,4.31-2.85,1.58-1.62,2.37-2.75,3.61-5.26,1.24-2.51,1.63-4.03,2.59-7.27.96-3.24,1.41-5.14,2.22-8.93.81-3.8,1.13-6.01,1.81-10.03.68-4.03.92-6.16,1.58-10.1.66-3.95.94-6.05,1.74-9.61.8-3.57,1.54-5.39,2.26-8.22.72-2.83,1.08-4.09,1.33-5.92.26-1.83.2-2.4-.06-3.23-.26-.84-.66-1.02-1.24-.93-.58.09-1,.49-1.66,1.36s-.85,1.75-1.64,2.99c-.8,1.24-1.26,2.03-2.33,3.22s-1.78,1.81-3.04,2.74c-1.26.93-2.02,1.37-3.25,1.92-1.24.55-1.86.81-2.91.84-1.05.04-1.46-.11-2.34-.65s-1.28-1.1-2.05-2.04c-.78-.94-1.24-1.62-1.83-2.66-.59-1.05-.76-1.63-1.13-2.58-.37-.94-.4-1.51-.73-2.14-.33-.64-.59-.74-.92-1.05-.32-.3-.28-.3-.71-.48-.42-.19-.9-.53-1.41-.43"/>
  <path class="cls-1" d="m255.74,25.75c-.44.31-.45.49-.78,1.34-.32.85-.55,1.37-.86,2.91-.31,1.55-.4,2.71-.7,4.84-.29,2.12-.49,3.57-.77,5.79-.28,2.23-.57,3.52-.64,5.31-.08,1.79-.1,2.63.26,3.64.36,1,.74,1.34,1.53,1.39.79.05,1.37-.16,2.42-1.15,1.05-1,1.68-1.83,2.84-3.83,1.15-2.01,1.62-3.56,2.93-6.2,1.3-2.64,2.03-4.41,3.6-7.02,1.58-2.61,2.78-3.96,4.28-6.03,1.49-2.07,2.2-3.11,3.18-4.32.99-1.21,1.25-1.66,1.73-1.73.48-.07.48.34.68,1.38.21,1.03.18,1.99.34,3.81.15,1.81.32,3.09.44,5.28.11,2.2.12,3.57.13,5.69.01,2.13-.15,3.24-.09,4.94.06,1.7.02,2.47.39,3.58.37,1.11.63,1.65,1.45,1.98.81.33,1.53.34,2.62-.34,1.09-.67,1.67-1.41,2.84-3.02,1.16-1.61,1.7-2.83,2.98-5.03,1.28-2.2,2.04-3.72,3.43-5.97,1.4-2.25,2.26-3.57,3.55-5.28,1.3-1.72,1.96-2.47,2.91-3.28.95-.8,1.32-.95,1.87-.75.54.2.64.6.86,1.74.23,1.14.18,2.04.25,3.97s0,3.33.11,5.67c.1,2.34.13,3.78.4,6.02.27,2.25.34,3.45.94,5.22.61,1.77,1.16,2.67,2.08,3.63.93.96,1.89,1.13,2.56,1.16.67.03.85-.48.8-1.02-.06-.54-.72-.75-1.07-1.68-.35-.93-.51-1.44-.68-2.96-.17-1.52-.17-2.53-.18-4.64-.02-2.11.15-3.5.09-5.9-.06-2.39.04-3.88-.39-6.07-.44-2.18-.77-3.36-1.78-4.85-1-1.5-1.75-2.15-3.24-2.61-1.48-.46-2.43-.4-4.17.3-1.74.7-2.72,1.49-4.51,3.2-1.8,1.72-2.78,3.09-4.46,5.38-1.67,2.28-2.58,3.78-3.92,6.03-1.34,2.25-1.99,3.45-2.77,5.22-.78,1.76-1.01,2.6-1.14,3.6s.19,1.37.49,1.41c.3.05.7-.29,1.03-1.19.33-.89.36-1.63.62-3.29.25-1.65.48-2.75.68-4.97s.42-3.72.31-6.13c-.12-2.41-.27-3.85-.87-5.93-.61-2.08-1.05-3.19-2.16-4.47-1.11-1.28-1.91-1.82-3.37-1.93-1.46-.12-2.27.25-3.93,1.35-1.67,1.1-2.61,2.05-4.41,4.15-1.79,2.11-2.79,3.7-4.55,6.38-1.76,2.68-2.75,4.4-4.25,7.03-1.5,2.63-2.31,4.01-3.27,6.11s-1.29,3.05-1.52,4.39c-.22,1.34.01,1.93.38,2.32.37.38.87.32,1.47-.4.6-.71.95-1.51,1.52-3.19.57-1.69.83-3,1.32-5.24s.85-3.73,1.13-5.95c.28-2.23.35-3.48.27-5.18s-.3-2.36-.66-3.32c-.36-.96-.62-1.21-1.13-1.47-.51-.26-1-.12-1.44.18"/>
  <path class="cls-1" d="m345.62,27.55c.23-.59.23-1.1-.2-1.99-.42-.9-.79-1.63-1.91-2.47-1.12-.85-1.99-1.32-3.69-1.77-1.7-.46-2.68-.63-4.82-.52-2.13.11-3.48.22-5.87,1.08-2.39.86-3.84,1.6-6.09,3.23s-3.49,2.79-5.17,4.94c-1.68,2.14-2.44,3.46-3.21,5.8-.76,2.35-.96,3.75-.61,5.91.35,2.16.91,3.36,2.35,4.91,1.43,1.55,2.67,2.21,4.83,2.84,2.17.64,3.53.68,6.01.35,2.48-.33,3.89-.83,6.39-1.99,2.49-1.17,3.83-2.06,6.08-3.82,2.24-1.76,3.36-2.94,5.16-4.97,1.79-2.03,2.79-3.29,3.81-5.16,1.02-1.88,1.28-3.05,1.29-4.21,0-1.15-.49-1.57-1.26-1.57s-1.65.4-2.6,1.57c-.95,1.16-1.61,2.29-2.14,4.26-.53,1.97-.56,3.43-.5,5.6.06,2.16.25,3.37.79,5.22.54,1.84.91,2.64,1.91,4,1.01,1.35,1.69,2.02,3.11,2.77,1.43.75,2.31.95,4.02.98,1.71.03,2.69-.2,4.52-.84,1.83-.65,2.81-1.13,4.62-2.39,1.82-1.26,2.75-2.15,4.44-3.93,1.7-1.78,2.62-2.94,4.02-4.97,1.4-2.03,2.06-3.24,2.99-5.17s1.37-2.97,1.67-4.46c.3-1.48.21-2.26-.17-2.97-.38-.71-1-.88-1.72-.56-.72.31-1.36.96-1.87,2.15-.51,1.19-.65,2.17-.69,3.79-.03,1.62.26,2.6.51,4.29.26,1.69.29,2.65.78,4.16.48,1.51.83,2.33,1.66,3.37.83,1.04,1.36,1.43,2.47,1.84,1.1.4,1.74.47,3.03.19,1.3-.28,2.02-.55,3.45-1.58s2.22-1.92,3.7-3.55c1.49-1.63,2.3-2.81,3.73-4.6,1.42-1.79,2.22-2.84,3.39-4.34s1.73-2.25,2.45-3.15c.73-.9.92-1.15,1.19-1.35.26-.2.17-.11.15.33-.01.44-.25.84-.23,1.85.02,1.01.08,1.78.33,3.2.25,1.41.49,2.3.93,3.87.45,1.56.71,2.44,1.28,3.94.58,1.51.93,2.32,1.6,3.6.68,1.29,1.11,1.93,1.78,2.83.67.89.99,1.18,1.56,1.65.57.48.86.59,1.29.72.43.12.59.02.86-.09.27-.11.35-.24.5-.47.15-.24.26-.29.26-.72-.01-.43-.04-.81-.31-1.43-.26-.62-.58-.81-1.02-1.66-.45-.85-.71-1.43-1.2-2.59-.49-1.17-.84-1.86-1.25-3.23-.41-1.37-.53-2.14-.81-3.63-.28-1.49-.26-2.39-.61-3.82-.34-1.43-.54-2.22-1.13-3.34-.59-1.12-.96-1.61-1.82-2.25-.86-.64-1.38-.94-2.47-.95-1.1-.01-1.71.15-3.02.9-1.3.74-2.01,1.45-3.5,2.84-1.5,1.39-2.4,2.38-3.96,4.09-1.55,1.7-2.48,2.83-3.82,4.44-1.34,1.6-1.97,2.49-2.87,3.58-.91,1.1-1.17,1.45-1.66,1.91-.49.45-.55.53-.81.38-.25-.15-.26-.38-.46-1.13-.2-.74-.4-1.36-.54-2.59-.14-1.23-.19-2.08-.16-3.56.03-1.48.3-2.4.31-3.86.02-1.46.06-2.28-.22-3.44-.29-1.15-.64-1.82-1.22-2.32-.57-.49-1.02-.54-1.67-.15-.64.39-.86.92-1.54,2.1-.69,1.18-.91,2.13-1.87,3.8-.96,1.66-1.62,2.73-2.93,4.53-1.32,1.8-2.18,2.89-3.65,4.48-1.47,1.59-2.23,2.38-3.69,3.48-1.46,1.11-2.24,1.43-3.59,2.03-1.35.6-2.06.82-3.15.97-1.1.15-1.52.16-2.34-.22-.82-.39-1.24-.78-1.77-1.69-.53-.91-.75-1.45-.87-2.86-.13-1.41-.01-2.43.23-4.19.25-1.76.7-2.89.99-4.62.3-1.73.49-2.71.5-4.01.01-1.31-.02-2.03-.44-2.53-.43-.51-.83-.6-1.68-.01-.85.59-1.35,1.44-2.59,2.95-1.23,1.5-1.93,2.77-3.57,4.57-1.64,1.8-2.64,2.87-4.62,4.43-1.97,1.55-3.16,2.3-5.25,3.33-2.08,1.03-3.24,1.43-5.16,1.81-1.91.38-2.86.36-4.41.07-1.54-.29-2.36-.62-3.3-1.51-.94-.9-1.28-1.55-1.39-2.96s.09-2.4.83-4.11c.75-1.7,1.41-2.74,2.89-4.42,1.49-1.67,2.61-2.61,4.52-3.94,1.9-1.33,3.09-1.97,5-2.71,1.91-.73,2.97-.85,4.56-.97,1.59-.11,2.25.08,3.38.4,1.14.32,1.49.72,2.29,1.21.79.49,1.02.87,1.69,1.22.66.35,1.04.63,1.64.53.6-.09,1.12-.38,1.35-.98"/>
  <path class="cls-1" d="m436.04,51.48c-.55-.06-.8-.08-1.7.52-.9.6-1.55,1.07-2.8,2.5-1.24,1.42-2.15,2.54-3.44,4.64-1.29,2.11-2.06,3.65-2.99,5.87-.92,2.23-1.63,4.01-1.64,5.26-.01,1.24.48,1.55,1.58.97,1.11-.58,2.42-2.04,3.96-3.86,1.53-1.83,2.37-3.27,3.71-5.27,1.35-2,2.14-3.09,3.01-4.72s1.07-2.41,1.34-3.42c.27-1.02.21-1.17.01-1.67-.21-.5-.5-.76-1.04-.82"/>
  <path class="cls-1" d="m484.9,28.24c-.55.32-.84.66-1.28,1.77-.43,1.1-.73,1.97-.88,3.75-.15,1.77-.11,3.06.12,5.12.24,2.06.48,3.24,1.07,5.18.59,1.94.91,2.96,1.87,4.51.96,1.56,1.63,2.24,2.95,3.25,1.31,1.01,2.07,1.38,3.62,1.8,1.55.43,2.43.53,4.14.31,1.71-.23,2.68-.51,4.42-1.43,1.73-.93,2.66-1.62,4.25-3.2,1.6-1.59,2.43-2.67,3.74-4.72,1.31-2.06,1.96-3.37,2.81-5.58.85-2.2,1.2-3.54,1.43-5.47.23-1.93,0-2.9-.28-4.16-.28-1.26-.59-1.55-1.12-2.15-.53-.6-1.06-.8-1.55-.87-.49-.08-.78.23-.91.5-.13.27.19.63.25.85.05.22-.03.08.03.23.05.14.2.16.24.49.05.33.12.3-.01,1.17-.13.86-.2,1.62-.64,3.16-.45,1.55-.77,2.68-1.59,4.56s-1.4,3.05-2.52,4.83c-1.11,1.78-1.81,2.73-3.06,4.08-1.24,1.35-1.92,1.9-3.15,2.68-1.23.79-1.85.99-2.98,1.24-1.12.25-1.64.23-2.62.01-.99-.22-1.49-.43-2.32-1.11-.82-.68-1.28-1.09-1.83-2.28-.55-1.2-.68-2.02-.91-3.67-.23-1.66-.17-2.76-.25-4.62-.08-1.86.01-3.05-.13-4.69-.14-1.64-.28-2.44-.56-3.52-.28-1.07-.36-1.43-.83-1.83-.47-.41-.96-.51-1.52-.19"/>
  <path class="cls-1" d="m523.47,27.95c-.59.14-.92.34-1.54,1.2-.62.86-1.04,1.56-1.55,3.09-.51,1.53-.75,2.62-1,4.58-.26,1.95-.27,3.21-.29,5.18-.03,1.98-.07,3.08.15,4.67.22,1.59.44,2.33.97,3.3.52.96.87,1.28,1.66,1.53.78.25,1.35.25,2.27-.29s1.35-1.03,2.31-2.41c.97-1.38,1.38-2.49,2.53-4.5,1.14-2.01,1.8-3.43,3.2-5.56,1.4-2.14,2.33-3.37,3.81-5.13,1.47-1.75,2.42-2.61,3.58-3.65,1.17-1.03,1.55-1.36,2.23-1.52.67-.17.77.05,1.16.69.39.64.53,1.21.79,2.49.27,1.27.3,2.12.54,3.89.25,1.76.4,2.9.67,4.93.27,2.04.25,3.3.66,5.24.41,1.93.73,3,1.38,4.43.66,1.43,1.15,1.98,1.91,2.72.75.73,1.32.93,1.86.96.55.03.79-.34.86-.81s-.29-.73-.5-1.54c-.2-.81-.3-1.2-.53-2.5-.22-1.29-.42-2.16-.61-3.97-.2-1.81-.15-3.02-.36-5.07-.21-2.06-.3-3.26-.7-5.2-.41-1.95-.53-2.99-1.32-4.53-.8-1.54-1.45-2.31-2.65-3.17-1.2-.85-1.87-1.11-3.35-1.12-1.48-.02-2.27.14-4.05,1.07-1.77.93-2.94,1.78-4.83,3.56-1.89,1.79-2.94,3.12-4.62,5.35-1.69,2.23-2.6,3.66-3.8,5.81-1.2,2.16-1.69,3.36-2.21,4.95-.52,1.6-.47,2.25-.39,3.03.07.79.44.95.74.9.31-.05.58-.35.76-1.16.19-.8.06-1.44.18-2.86.12-1.42.21-2.43.42-4.22.22-1.8.37-2.98.64-4.77.28-1.79.56-2.72.74-4.19.19-1.47.25-2.18.19-3.16-.07-.98-.12-1.29-.5-1.74-.38-.45-.82-.64-1.41-.5"/>
  <path class="cls-1" d="m583.23,34.99c.08-.65-.03-1.17-.67-2.01-.65-.84-1.19-1.49-2.55-2.19-1.36-.7-2.34-1.15-4.24-1.32-1.9-.18-3.13-.12-5.28.44-2.14.57-3.39,1.06-5.44,2.39-2.05,1.34-3.25,2.34-4.8,4.3-1.56,1.96-2.25,3.26-2.98,5.52-.73,2.25-.93,3.6-.69,5.74.25,2.14.68,3.34,1.91,4.95,1.24,1.62,2.28,2.29,4.27,3.13,1.99.83,3.27,1.07,5.67,1.03,2.41-.03,3.86-.28,6.34-1.21,2.48-.94,3.81-1.72,6.07-3.46,2.27-1.74,3.42-2.73,5.26-5.25,1.85-2.51,2.65-4.12,3.97-7.31s1.83-5.06,2.65-8.63,1.02-5.63,1.45-9.23c.42-3.61.69-5.6.67-8.79-.02-3.18-.23-4.89-.77-7.12-.55-2.24-1.05-3.15-1.96-4.04-.91-.89-1.61-.98-2.58-.41-.98.56-1.68,1.28-2.3,3.24-.63,1.96-.81,3.51-.81,6.56.01,3.06.42,5.09.82,8.72.4,3.64.65,5.79,1.18,9.46.53,3.68.82,5.63,1.49,8.93.68,3.3.92,4.9,1.88,7.55.96,2.65,1.6,3.83,2.93,5.7,1.33,1.86,2.13,2.62,3.74,3.63,1.61,1.02,2.51,1.32,4.32,1.46,1.81.14,2.83.01,4.73-.74,1.91-.75,2.97-1.43,4.78-3.01,1.81-1.59,2.74-2.76,4.27-4.92,1.53-2.16,2.26-3.53,3.39-5.89,1.12-2.37,1.64-3.72,2.24-5.95.6-2.22.8-3.34.75-5.19-.05-1.85-.25-2.74-1.02-4.05-.77-1.32-1.4-1.96-2.83-2.53s-2.49-.75-4.32-.33c-1.83.42-3.09.98-4.83,2.42-1.73,1.45-2.63,2.61-3.84,4.82-1.22,2.21-1.8,3.7-2.24,6.24-.44,2.55-.52,4.1.03,6.48.55,2.37,1.22,3.53,2.72,5.4,1.51,1.86,2.6,2.65,4.8,3.91,2.21,1.26,3.6,1.8,6.22,2.38,2.61.58,4.21.62,6.85.52,2.65-.09,4.02-.39,6.37-1,2.34-.61,3.44-1.04,5.36-2.04,1.93-.99,2.87-1.63,4.24-2.94,1.37-1.3,2.04-2.14,2.61-3.59.57-1.44.52-2.82.25-3.64-.27-.83-.98-.89-1.61-.47-.63.41-.81,1.55-1.55,2.54-.75.99-1.04,1.47-2.17,2.41-1.13.93-1.86,1.5-3.47,2.26-1.62.77-2.57,1.12-4.6,1.55-2.02.44-3.26.61-5.54.64-2.28.03-3.64-.03-5.85-.47-2.22-.43-3.39-.82-5.21-1.71-1.81-.88-2.72-1.42-3.85-2.72-1.13-1.31-1.53-2.06-1.8-3.78-.26-1.72-.01-2.89.48-4.84.49-1.95,1.01-3.19,1.97-4.9.96-1.71,1.66-2.52,2.84-3.65s2.01-1.47,3.06-2c1.06-.52,1.54-.68,2.21-.61.67.06.9.23,1.14.94.25.7.3,1.24.09,2.58-.22,1.35-.46,2.27-1.16,4.14-.7,1.86-1.24,3.09-2.34,5.18-1.1,2.08-1.82,3.32-3.16,5.23-1.34,1.92-2.16,2.93-3.54,4.35-1.38,1.43-2.11,2.03-3.38,2.78-1.26.75-1.83.96-2.96.98-1.13.01-1.63-.13-2.69-.88-1.07-.76-1.66-1.32-2.64-2.91s-1.41-2.63-2.25-5.04c-.85-2.41-1.28-3.88-1.97-7.02-.69-3.14-1.04-5.08-1.48-8.66-.44-3.59-.64-5.73-.74-9.27-.1-3.53.22-5.53.26-8.42.03-2.89.05-4.26-.07-6.05-.13-1.78-.34-2.38-.55-2.88s-.43-.44-.51.39c-.07.83-.03,1.68.12,3.75.16,2.07.58,3.6.64,6.59.07,2.99.04,4.92-.3,8.36-.33,3.43-.57,5.46-1.37,8.81-.81,3.36-1.35,5.11-2.64,7.97-1.29,2.86-2.12,4.22-3.8,6.35s-2.66,2.89-4.59,4.31c-1.94,1.42-3.08,2.01-5.09,2.78-2.01.76-3.14.93-4.97,1.06-1.84.13-2.79.01-4.21-.41-1.41-.41-2.09-.72-2.85-1.68-.77-.95-.95-1.67-.97-3.11-.02-1.44.19-2.44.86-4.09.68-1.64,1.24-2.64,2.52-4.13,1.28-1.49,2.27-2.28,3.87-3.32,1.6-1.04,2.57-1.46,4.13-1.87,1.56-.42,2.39-.35,3.68-.2,1.29.16,1.77.58,2.77.97,1,.4,1.44.77,2.25,1.01.82.25,1.23.43,1.81.24.58-.2,1.01-.57,1.1-1.21"/>
  <path class="cls-1" d="m650.49,30.69c-.5.2-.62.39-1.01,1.08-.39.7-.66,1.12-.94,2.4-.28,1.28-.41,2.26-.48,4-.06,1.75.04,2.89.15,4.73s.11,2.93.41,4.47c.31,1.55.49,2.39,1.11,3.25.63.87,1.22,1.15,2.03,1.08.8-.08,1.33-.37,2.01-1.43.68-1.07.88-1.98,1.39-3.89.5-1.91.57-3.36,1.14-5.67.56-2.3.89-3.72,1.68-5.85.8-2.12,1.27-3.19,2.29-4.76,1.01-1.58,1.59-2.19,2.78-3.1,1.18-.91,1.83-1.08,3.14-1.45,1.31-.38,1.95-.38,3.41-.41,1.47-.03,2.23.03,3.93.26,1.69.22,2.67.46,4.56.85,1.89.4,3.02.78,4.9,1.12,1.88.33,2.91.48,4.5.56,1.58.08,2.67.17,3.43-.17s.91-.85.38-1.52c-.52-.66-1.53-1.16-2.99-1.8-1.47-.64-2.46-.88-4.34-1.4-1.87-.52-3.01-.83-5.03-1.19-2.02-.36-3.13-.51-5.05-.61-1.91-.1-2.79-.05-4.54.13-1.75.19-2.53.26-4.2.81-1.68.56-2.58.84-4.19,1.96-1.6,1.12-2.42,1.89-3.84,3.66-1.43,1.77-2.09,2.91-3.28,5.2-1.19,2.29-1.88,3.76-2.68,6.26-.79,2.49-1.13,4.12-1.3,6.21-.18,2.09.09,3.11.42,4.23.33,1.13.74,1.31,1.21,1.39.47.07.81-.2,1.13-1,.31-.81.34-1.56.45-3.02.1-1.45.02-2.52.06-4.26.05-1.74.1-2.8.16-4.45.05-1.65.2-2.54.11-3.81-.08-1.27-.25-1.78-.54-2.54-.28-.75-.42-.98-.89-1.24-.48-.27-.98-.28-1.48-.08"/>
  <path class="cls-1" d="m759.29,28.32c-.36-.56-.92-.86-2-1.09-1.08-.24-1.75-.32-3.39-.08-1.64.23-2.73.43-4.81,1.24s-3.29,1.46-5.61,2.81c-2.32,1.35-3.79,2.22-6,3.96-2.22,1.74-3.45,2.81-5.07,4.76-1.62,1.95-2.44,2.99-3.02,4.99-.59,2-.55,3.19.12,5.02.66,1.82,1.4,2.71,3.2,4.1,1.8,1.39,3.15,2.01,5.79,2.85,2.63.83,4.55,1.12,7.4,1.33,2.84.22,4.5.01,6.84-.26,2.34-.27,3.88-.56,4.86-1.09.97-.54.96-1.04.01-1.58-.96-.55-2.54-.76-4.78-1.15-2.24-.38-3.8-.41-6.42-.78-2.62-.36-4.35-.54-6.68-1.04-2.34-.51-3.5-.78-4.99-1.48s-2.01-1.07-2.47-2.02c-.46-.95-.46-1.53.17-2.74.64-1.21,1.42-1.87,2.99-3.3,1.57-1.43,2.76-2.37,4.86-3.85,2.09-1.48,3.49-2.31,5.62-3.54,2.12-1.22,3.2-1.8,4.99-2.58,1.79-.78,2.66-.89,3.96-1.32,1.3-.42,1.7-.48,2.55-.78.85-.3,1.33-.23,1.7-.7.38-.48.54-1.13.18-1.68"/>
  <path class="cls-1" d="m793.55,38.45c-.07-.63-.39-1.02-1.14-1.65-.76-.63-1.27-1.13-2.63-1.48-1.37-.35-2.51-.46-4.2-.26-1.69.2-2.54.48-4.25,1.24s-2.71,1.29-4.3,2.55c-1.59,1.25-2.51,2.01-3.67,3.73-1.15,1.72-1.72,2.94-2.09,4.88s-.31,3.07.24,4.83c.56,1.76,1.11,2.67,2.53,3.97,1.42,1.3,2.53,1.92,4.57,2.53,2.05.6,3.41.59,5.64.49,2.22-.1,3.37-.33,5.5-.99,2.12-.66,3.3-1.08,5.12-2.31,1.81-1.22,2.73-2.1,3.96-3.79,1.23-1.7,1.66-2.8,2.19-4.66.52-1.86.61-2.94.43-4.65-.18-1.71-.58-2.63-1.34-3.91-.76-1.27-1.51-1.8-2.47-2.46-.95-.66-1.5-.71-2.29-.82-.78-.11-1.22-.03-1.63.27-.4.3-.49.77-.4,1.23.09.47.43.65.85,1.09.42.44.69.59,1.25,1.11.56.51,1.1.7,1.57,1.46.46.76.7,1.23.75,2.34.05,1.11-.07,1.89-.5,3.22-.42,1.33-.7,2.19-1.61,3.44-.92,1.24-1.55,1.89-2.96,2.77-1.4.88-2.36,1.18-4.08,1.63-1.73.45-2.75.54-4.54.62-1.79.08-2.87.07-4.41-.22-1.53-.28-2.32-.54-3.27-1.2-.96-.67-1.26-1.12-1.51-2.13-.25-1.01-.16-1.68.25-2.93s.86-2.1,1.79-3.32c.92-1.22,1.58-1.83,2.82-2.78,1.23-.95,2.09-1.46,3.35-1.99s1.77-.59,2.94-.66c1.17-.08,1.89.2,2.9.3,1,.09,1.34.18,2.11.18.77,0,1.23.19,1.73-.15.51-.33.87-.89.8-1.52"/>
  <path class="cls-1" d="m814.35,37.58c-.59.23-.84.62-1.39,1.51-.54.9-.85,1.56-1.33,2.96-.48,1.41-.74,2.4-1.06,4.08-.33,1.68-.48,2.77-.55,4.33-.07,1.57-.17,2.37.19,3.5.35,1.12.74,1.7,1.58,2.12.84.42,1.5.48,2.61-.03,1.1-.5,1.7-1.11,2.94-2.51,1.23-1.41,1.81-2.56,3.21-4.5,1.39-1.95,2.2-3.26,3.76-5.22,1.57-1.96,2.56-3.03,4.07-4.58,1.5-1.55,2.32-2.25,3.46-3.18,1.13-.93,1.63-1.22,2.22-1.46.59-.24.68-.21.72.25.03.46-.28.88-.55,2.06-.26,1.18-.51,2.15-.77,3.85-.27,1.7-.35,2.76-.55,4.66-.2,1.9-.46,3.06-.43,4.84s.2,2.72.58,4.07c.39,1.35.78,2.17,1.34,2.66.55.49,1.06.36,1.45-.22.4-.59.33-1.45.51-2.7.18-1.25.14-1.93.39-3.53.25-1.6.56-2.64.87-4.48.32-1.84.57-2.9.72-4.74.14-1.83.29-2.88,0-4.45-.29-1.56-.57-2.41-1.47-3.38-.89-.96-1.61-1.35-3-1.45-1.38-.1-2.24.16-3.91.97-1.68.8-2.62,1.54-4.48,3.06-1.86,1.53-2.98,2.59-4.83,4.56-1.85,1.97-2.92,3.26-4.41,5.27-1.48,2.02-2.19,3.21-3.02,4.82-.84,1.61-1,2.37-1.14,3.24-.14.88.16,1.1.45,1.11.29.02.61-.25,1.02-1.02.41-.77.61-1.47,1.02-2.84s.66-2.42,1.03-4.03c.36-1.6.61-2.54.81-4,.2-1.45.27-2.2.17-3.26-.09-1.05-.2-1.55-.65-2.01-.44-.47-.99-.57-1.58-.33"/>
  <path class="cls-1" d="m871.34,34.73c-.1-.67-.48-1.16-1.32-1.84-.84-.67-1.45-1.12-2.88-1.55-1.43-.43-2.52-.64-4.26-.6-1.73.04-2.8.28-4.41.79-1.62.51-2.47.86-3.66,1.78-1.2.91-1.8,1.54-2.32,2.78-.52,1.24-.67,2.02-.29,3.4.39,1.38.93,2.21,2.21,3.5,1.28,1.29,2.36,1.89,4.2,2.94,1.83,1.05,3.06,1.42,4.98,2.3s3.04,1.38,4.62,2.1c1.57.72,2.38,1.06,3.25,1.52.88.46,1.14.46,1.12.77-.02.32-.37.36-1.21.79-.83.43-1.51.77-2.97,1.37-1.46.61-2.4.99-4.33,1.64-1.93.66-3.25,1.08-5.32,1.63-2.06.56-3.28.85-4.99,1.16-1.72.32-2.6.42-3.58.43-.98,0-1.28.08-1.32-.4-.04-.47.25-.83,1.13-1.96.88-1.12,1.96-2.02,3.28-3.66,1.32-1.64,2.23-2.79,3.32-4.53,1.09-1.74,1.98-3.08,2.15-4.16.18-1.08-.18-1.47-1.27-1.23-1.09.24-2.51,1.08-4.18,2.42-1.68,1.34-2.8,2.39-4.2,4.29-1.39,1.9-2.27,3.27-2.78,5.2-.5,1.93-.35,3.03.26,4.43.61,1.4,1.3,1.9,2.8,2.58,1.51.68,2.64.8,4.73.81,2.09,0,3.43-.31,5.74-.79,2.31-.47,3.68-.84,5.83-1.59,2.14-.76,3.26-1.14,4.89-2.17,1.64-1.03,2.42-1.73,3.28-2.98.87-1.26,1.08-2.02,1.04-3.3-.03-1.28-.31-1.91-1.21-3.11-.91-1.2-1.72-1.78-3.31-2.89-1.59-1.11-2.77-1.64-4.64-2.65-1.87-1.01-3.01-1.51-4.72-2.4-1.72-.89-2.66-1.37-3.86-2.04-1.21-.66-1.75-.88-2.16-1.27-.42-.4-.3-.37.07-.69.36-.32.85-.56,1.75-.9.91-.34,1.53-.6,2.76-.8,1.23-.2,2.05-.22,3.37-.21,1.32,0,2.09.13,3.21.25,1.13.13,1.54.31,2.41.38s1.39.29,1.94-.02c.56-.31.94-.85.85-1.52"/>
  <path class="cls-1" d="m896.07,9.3c-.62.22-1,.53-1.67,1.64-.68,1.11-1.11,1.92-1.69,3.9-.57,1.99-.81,3.33-1.19,6.01-.38,2.67-.49,4.42-.72,7.37-.23,2.95-.26,4.57-.42,7.37-.16,2.8-.22,4.23-.38,6.63-.16,2.4-.26,3.52-.44,5.38-.17,1.85-.32,2.63-.45,3.89-.13,1.27-.23,1.73-.2,2.44.03.71.22.81.34,1.11.11.3.09.22.22.38.14.15.21.34.44.37.23.04.39.06.73-.19.33-.26.58-.36.93-1.06.35-.7.5-1.16.83-2.45.33-1.29.52-2.11.84-4.01.32-1.9.46-3.05.75-5.48.3-2.43.45-3.9.72-6.68s.25-4.38.61-7.24c.37-2.86.8-4.5,1.21-7.08.41-2.57.6-3.85.84-5.78.25-1.93.34-2.67.36-3.87.03-1.19.1-1.57-.23-2.11-.33-.53-.8-.76-1.43-.54"/>
  <path class="cls-1" d="m880.44,40.07c.45.28.63.18,1.43.15.8-.02,1.19-.05,2.57-.25,1.39-.21,2.33-.46,4.37-.79,2.03-.33,3.3-.51,5.8-.87,2.51-.37,4.24-.55,6.73-.94,2.48-.39,3.78-.6,5.71-1.02,1.93-.42,3.13-.57,3.92-1.07.78-.5.8-.96-.02-1.45-.81-.5-2.05-.77-4.06-1.01-2.02-.23-3.43-.27-6.02-.16-2.59.11-4.33.39-6.92.71s-3.87.5-6.02.91-3.24.58-4.73,1.16c-1.49.59-2.01,1.09-2.73,1.77-.71.67-.83,1.04-.84,1.62,0,.57.37.96.81,1.24"/>
  <path class="cls-1" d="m913.88,38.96c-.53.27-.66.58-1.11,1.4-.44.82-.75,1.41-1.09,2.71-.35,1.3-.44,2.3-.63,3.81-.18,1.5-.3,2.4-.3,3.72.01,1.32,0,2.03.32,2.87.32.84.69,1.21,1.28,1.34.58.12,1.1-.04,1.65-.72.56-.67.77-1.26,1.12-2.66s.41-2.48.63-4.33c.23-1.85.14-3.09.48-4.93s.48-2.75,1.22-4.28c.73-1.54,1.25-2.21,2.45-3.4,1.19-1.19,1.94-1.69,3.53-2.56,1.58-.88,2.48-1.25,4.4-1.81,1.91-.56,3.1-.7,5.18-.99,2.08-.29,3.33-.33,5.21-.46s2.73-.12,4.2-.2c1.47-.09,2.45.11,3.14-.23.7-.33.87-.83.32-1.44-.54-.6-1.5-1.13-3.05-1.6-1.54-.46-2.57-.65-4.66-.74-2.08-.08-3.45-.01-5.77.32-2.32.32-3.64.58-5.84,1.32-2.2.73-3.26,1.23-5.14,2.36s-2.77,1.78-4.27,3.29c-1.5,1.51-2.17,2.4-3.24,4.25-1.07,1.85-1.43,2.93-2.13,4.99-.7,2.06-1,3.31-1.36,5.31-.35,2.01-.51,3.15-.4,4.7.1,1.56.38,2.27.92,3.07.54.8,1.11.98,1.79.94.67-.05,1.1-.42,1.59-1.17.5-.75.52-1.36.9-2.58.37-1.23.69-2.06.99-3.55.3-1.5.46-2.54.49-3.93.04-1.39-.06-2.07-.3-3.02-.25-.94-.43-1.35-.94-1.71-.5-.36-1.04-.35-1.58-.09"/>
  <path class="cls-1" d="m949.34,31.57c-.68.05-1.25.32-2.06,1.2-.82.88-1.38,1.61-2.03,3.19-.65,1.58-1.02,2.74-1.21,4.72-.18,1.98-.11,3.26.29,5.19.39,1.93.84,2.93,1.69,4.48.86,1.55,1.39,2.2,2.57,3.27,1.17,1.08,1.84,1.56,3.31,2.11,1.48.54,2.37.73,4.06.62,1.69-.11,2.66-.39,4.39-1.18,1.74-.78,2.66-1.36,4.31-2.73,1.64-1.36,2.5-2.25,3.93-4.09,1.42-1.84,2.15-3.05,3.2-5.1,1.06-2.05,1.59-3.32,2.07-5.15.47-1.83.55-2.85.3-4-.24-1.14-.74-1.61-1.53-1.7-.78-.09-1.6.24-2.39,1.25-.79,1.02-1.29,2.08-1.54,3.83-.25,1.74-.1,2.96.3,4.88.4,1.92.76,3.02,1.69,4.71.92,1.69,1.57,2.48,2.93,3.74,1.36,1.26,2.16,2,3.88,2.53,1.72.54,3.69.53,4.72.13,1.04-.39,1.12-1.33.47-2.1-.65-.77-2.43-1.06-3.72-1.73-1.3-.66-1.86-.72-2.77-1.59s-1.3-1.47-1.78-2.75c-.47-1.27-.51-2.14-.6-3.62-.08-1.49.19-2.39.18-3.8-.01-1.41.01-2.26-.23-3.25-.23-1-.47-1.51-.94-1.72-.48-.21-.82-.08-1.43.67-.6.75-.87,1.55-1.6,3.07-.72,1.51-1.07,2.7-2.03,4.5-.95,1.79-1.55,2.89-2.74,4.48-1.19,1.6-1.9,2.34-3.21,3.49-1.3,1.15-2.06,1.58-3.32,2.26-1.25.68-1.89.94-2.97,1.14-1.08.2-1.55.15-2.44-.14-.89-.29-1.31-.58-2.02-1.33-.72-.75-1.07-1.25-1.56-2.41-.48-1.17-.73-1.96-.85-3.43-.13-1.47,0-2.4.24-3.94.24-1.55.62-2.43.95-3.78.33-1.36.53-2,.7-3,.17-1,.38-1.41.14-2-.24-.58-.66-.98-1.35-.92"/>
  <path class="cls-1" d="m1018.82,35.21c-.08-.66-.38-1.16-1.26-1.84-.88-.69-1.52-1.24-3.12-1.58-1.59-.35-2.8-.48-4.85-.16-2.06.32-3.21.7-5.43,1.77-2.22,1.07-3.59,1.87-5.67,3.59-2.08,1.72-3.33,2.9-4.72,5.02-1.4,2.12-1.95,3.49-2.25,5.58-.3,2.08-.15,3.18.75,4.86.9,1.68,1.79,2.47,3.75,3.52,1.96,1.05,3.33,1.44,6.05,1.74,2.72.3,4.41.17,7.53-.24,3.12-.4,4.89-.84,8.07-1.81,3.18-.96,4.85-1.58,7.83-2.99,2.98-1.42,4.56-2.23,7.07-4.1,2.51-1.87,3.65-3.01,5.48-5.26,1.84-2.24,2.55-3.5,3.69-5.97,1.13-2.48,1.48-3.86,1.99-6.4.51-2.54.6-3.95.55-6.3-.05-2.35-.2-3.72-.81-5.42-.6-1.71-1.21-2.56-2.19-3.09-.99-.54-1.83-.44-2.75.42-.91.86-1.36,1.83-1.82,3.86-.46,2.03-.52,3.56-.49,6.3.04,2.74.29,4.49.66,7.4.36,2.91.69,4.52,1.16,7.15.47,2.63.7,3.88,1.18,6.02.49,2.14.72,3.25,1.26,4.66.53,1.41.94,2.01,1.41,2.38.47.37.83.03.94-.53.12-.55.05-1.26-.36-2.24-.41-.99-.82-1.62-1.69-2.67-.86-1.05-1.6-1.68-2.63-2.6-1.03-.91-1.78-1.38-2.54-1.99-.75-.61-1.1-.66-1.22-1.05-.13-.38-.08-.45.61-.87.68-.41,1.22-.61,2.83-1.19,1.6-.58,2.78-.92,5.2-1.71,2.41-.79,3.96-1.48,6.86-2.22,2.89-.75,4.66-1.05,7.61-1.51,2.94-.47,4.57-.65,7.11-.83,2.54-.17,3.76-.23,5.59-.06,1.83.18,2.57.36,3.57.95,1,.58,1.18.97,1.41,1.99.23,1.02-.01,1.7-.26,3.12-.25,1.41-.61,2.39-.99,3.96-.37,1.57-.84,2.6-.87,3.9-.02,1.31.24,2.16.77,2.64.53.49,1.13.6,1.89-.21.75-.81,1.35-1.6,1.87-3.84.53-2.24.72-4.34.74-7.37.01-3.02-.28-5.06-.65-7.76-.36-2.69-.67-3.92-1.19-5.73-.53-1.8-.9-2.67-1.43-3.3-.53-.62-.89-.53-1.22.18-.33.72-.23,1.59-.43,3.4-.2,1.81-.43,3.03-.58,5.65-.16,2.63-.09,4.58-.18,7.47-.08,2.89-.35,4.79-.24,6.98.12,2.19.31,2.96.8,3.96.49.99.87,1.17,1.67,1.01.8-.16,1.57-.61,2.32-1.8s1.08-2.36,1.44-4.15c.36-1.79.47-2.96.37-4.79-.09-1.84-.12-2.84-.83-4.4-.71-1.57-1.23-2.36-2.71-3.44s-2.48-1.46-4.69-1.95c-2.21-.49-3.58-.56-6.36-.49-2.77.07-4.42.4-7.52.83-3.1.42-4.92.66-8,1.28-3.08.62-4.8.97-7.41,1.82-2.6.85-3.84,1.34-5.62,2.41-1.78,1.08-2.44,1.71-3.29,2.96s-.95,1.99-.97,3.28c-.02,1.29.27,1.95.85,3.18.59,1.23,1.22,1.78,2.07,2.96.86,1.17,1.26,1.91,2.2,2.91.95,1,1.52,1.51,2.55,2.07,1.03.56,1.71.8,2.61.75.9-.06,1.45-.21,1.88-1.03.42-.83.38-1.57.24-3.11-.14-1.55-.59-2.52-.94-4.62s-.51-3.32-.81-5.88c-.3-2.57-.55-4.14-.68-6.94-.13-2.8.07-4.47.04-7.06-.04-2.6-.04-4.06-.23-5.91-.2-1.86-.46-2.67-.77-3.37-.31-.71-.59-.69-.78-.16s-.23,1.29-.17,2.8c.05,1.5.43,2.68.46,4.72.04,2.04.07,3.29-.3,5.5-.38,2.2-.63,3.41-1.58,5.54-.95,2.13-1.59,3.17-3.18,5.12-1.59,1.95-2.54,2.97-4.78,4.65-2.23,1.68-3.65,2.47-6.38,3.75-2.74,1.28-4.35,1.86-7.3,2.64-2.96.77-4.66.99-7.49,1.25-2.83.26-4.34.17-6.67.05-2.33-.13-3.43-.24-4.96-.68s-2.15-.7-2.67-1.54c-.53-.83-.45-1.35.04-2.63s1.1-2.22,2.42-3.77c1.31-1.54,2.39-2.54,4.17-3.96,1.79-1.42,2.98-2.21,4.75-3.12,1.78-.9,2.62-1.13,4.12-1.39,1.51-.26,2.24,0,3.4.1,1.15.1,1.52.32,2.37.41s1.32.31,1.86.03c.55-.29.95-.8.87-1.46"/>
  <path class="cls-1" d="m1082.95,21.7c-.45.28-.55.5-.79,1.17-.23.67-.35,1.09-.39,2.2-.05,1.11.07,1.8.18,3.35.11,1.56.1,2.56.35,4.44.26,1.88.36,3,.92,4.97.57,1.98.89,3.1,1.92,4.91,1.02,1.82,1.68,2.8,3.19,4.17,1.52,1.37,2.5,1.92,4.39,2.66,1.89.74,3.04.97,5.07,1.04,2.03.06,3.21-.07,5.08-.7,1.86-.63,2.82-1.23,4.26-2.46,1.43-1.23,2.11-2.03,2.92-3.71.81-1.67,1.13-2.68,1.14-4.67.02-1.99-.17-3.21-1.07-5.28-.9-2.07-1.62-3.26-3.42-5.05-1.81-1.79-3.23-2.75-5.6-3.89-2.36-1.15-3.89-1.57-6.22-1.85-2.34-.28-3.7-.13-5.45.46-1.74.58-2.53,1.17-3.29,2.45-.75,1.28-.87,2.34-.47,3.95.39,1.61,1.05,2.58,2.46,4.1,1.42,1.52,2.43,2.3,4.6,3.5,2.18,1.21,3.71,1.75,6.27,2.51,2.57.77,3.99,1,6.57,1.33,2.58.33,3.96.37,6.33.33,2.38-.03,3.61-.18,5.55-.51,1.93-.32,2.71-.58,4.14-1.12,1.43-.55,1.99-.85,3-1.6,1.01-.74,1.4-1.2,2.03-2.13s1.03-1.53,1.14-2.51c.1-.99-.03-1.71-.62-2.42-.59-.7-1.35-1.13-2.33-1.1-.98.02-1.65.34-2.57,1.22-.92.89-1.44,1.72-2.01,3.2-.57,1.48-.75,2.6-.85,4.22-.1,1.61-.07,2.62.36,3.86.42,1.23.85,1.74,1.78,2.3.92.55,1.57.67,2.85.47,1.28-.21,2.01-.54,3.55-1.51,1.53-.97,2.41-1.9,4.12-3.36,1.72-1.47,2.69-2.52,4.46-3.97,1.76-1.46,2.81-2.2,4.37-3.32,1.55-1.13,2.37-1.7,3.4-2.29,1.03-.6,1.28-.79,1.75-.67.48.12.46.48.62,1.27.16.8.14,1.39.19,2.7.05,1.32.03,2.19.06,3.88.03,1.68-.02,2.65.1,4.54.12,1.88.06,3.06.52,4.88.45,1.83.87,2.84,1.75,4.24.87,1.4,1.61,2.07,2.62,2.76,1.01.68,1.79.76,2.43.67.64-.08.82-.54.78-1.1-.04-.57-.51-.89-.98-1.73-.46-.84-.85-1.35-1.35-2.5-.5-1.14-.91-1.74-1.17-3.22-.25-1.48-.11-2.43-.12-4.16,0-1.73.15-2.72.1-4.5-.06-1.79.01-2.84-.39-4.44-.41-1.6-.77-2.43-1.65-3.57-.87-1.14-1.46-1.68-2.73-2.12-1.28-.44-2.01-.44-3.64-.1-1.63.35-2.59.84-4.5,1.82-1.92.99-3.07,1.72-5.07,3.11-2,1.39-3.19,2.36-4.93,3.84-1.75,1.48-2.64,2.37-3.79,3.56-1.14,1.18-1.46,1.7-1.94,2.36s-.54.89-.46.92.43-.03.86-.76c.43-.73.85-1.63,1.28-2.9.43-1.28.57-2.24.88-3.5.3-1.25.59-1.87.64-2.77.05-.91-.04-1.41-.41-1.74-.37-.32-1.05-.17-1.44.11-.38.28-.37.75-.47,1.29-.1.54.18.88-.02,1.4-.21.53-.36.79-1.01,1.22-.65.43-1.07.63-2.23.93-1.17.29-1.87.4-3.6.55-1.72.15-2.88.24-5.03.19-2.15-.06-3.42-.09-5.73-.47-2.31-.39-3.56-.71-5.8-1.46s-3.55-1.34-5.41-2.31c-1.85-.97-2.63-1.6-3.89-2.54s-1.84-1.45-2.42-2.15c-.58-.71-.75-1.01-.47-1.37.29-.36.71-.42,1.9-.43,1.19,0,2.27-.02,4.07.41,1.8.42,3.04.76,4.93,1.71,1.89.95,3.07,1.72,4.53,3.04,1.46,1.33,2.02,2.16,2.76,3.59.75,1.44.9,2.28.97,3.6.07,1.31-.09,1.9-.63,2.97-.53,1.07-1.04,1.57-2.06,2.37-1.02.79-1.69,1.2-3.04,1.61-1.35.42-2.22.49-3.72.45-1.5-.03-2.41-.14-3.8-.64s-2.08-.84-3.14-1.85c-1.07-1.01-1.5-1.77-2.19-3.22-.7-1.46-.96-2.38-1.31-4.06-.35-1.69-.35-2.63-.45-4.37-.1-1.74.07-2.77-.04-4.34-.12-1.56-.25-2.38-.54-3.5-.29-1.13-.51-1.5-.91-2.11-.4-.62-.56-.81-1.08-.95-.52-.15-1.04-.07-1.5.2"/>
  <path class="cls-1" d="m1209.35,39.53c.62-.08,1.15-.2,1.27-.54.11-.33-.07-.79-.68-1.12-.62-.33-1.7-.61-2.41-.52-.71.09-1.13.58-1.13.99s.55.82,1.14,1.06c.59.24,1.2.21,1.81.13"/>
  <path class="cls-1" d="m1215.48,32.63c-.03-.45-.62-.7-.97-.41-.36.29-.84,1.41-.8,1.86.03.46.62.71.97.42.36-.29.84-1.41.8-1.87"/>
  <path class="cls-1" d="m1214.22,44.9c-.79.25-1.65.75-2.39,1.99-.74,1.25-1.52,3.13-1.33,4.22.2,1.1,1.26,1.71,2.3,1.27,1.04-.45,2.3-2.13,2.9-3.48s.39-2.46.09-3.26c-.3-.8-.78-.99-1.57-.74"/>
  <path class="cls-1" d="m1252,.65c-.69-.18-1.35-.32-2.82.39-1.47.72-2.55,1.27-4.53,3.18-1.98,1.91-3.24,3.36-5.36,6.38-2.11,3.02-3.35,4.99-5.21,8.71-1.85,3.72-2.8,5.87-4.05,9.88-1.25,4.01-1.81,6.23-2.19,10.16-.39,3.93-.25,5.99.26,9.48s.93,5.12,2.28,7.96c1.35,2.85,2.48,4.17,4.45,6.26,1.98,2.08,3.18,2.79,5.42,4.18,2.24,1.39,3.66,1.98,5.78,2.75,2.13.78,3.28.93,4.84,1.11,1.56.18,2.32.08,2.98-.19.65-.28.71-.66.3-1.2-.42-.55-1.07-.84-2.39-1.54-1.31-.7-2.3-1.09-4.2-1.95-1.9-.86-3.28-1.19-5.3-2.34-2.01-1.16-3.02-1.69-4.77-3.42-1.74-1.72-2.7-2.79-3.95-5.21-1.25-2.42-1.74-3.79-2.28-6.91-.54-3.12-.75-5.05-.42-8.7.32-3.65.82-5.77,2.05-9.53,1.22-3.76,2.17-5.85,4.08-9.27s3.25-5.18,5.47-7.82c2.22-2.64,3.88-3.52,5.64-5.38,1.77-1.85,2.27-2.76,3.19-3.9.92-1.14,1.25-1.17,1.4-1.79.15-.61.03-1.11-.67-1.29"/>
</svg>