<?xml version="1.0" encoding="UTF-8"?>
<svg id="Layer_2" data-name="Layer 2" xmlns="http://www.w3.org/2000/svg" viewBox="0 0 21.25 350.67">
  <defs>
    <style>
      .cls-1 {
        fill: #ea1f27;
        stroke: #ea1f27;
        stroke-miterlimit: 10;
      }
    </style>
  </defs>
  <g id="Layer_1-2" data-name="Layer 1">
    <path class="cls-1" d="m3.95,2.11l-.92,2.39s-.42.78.46,1.59,1.71,0,1.71,0c0,0,.74-.71.45-1.38s-1.49-3.29-1.49-3.29c0,0-.21.69-.21.69Z"/>
    <path class="cls-1" d="m13.5,90.15l-1.26,4.09s-.57,1.34.63,2.72,2.34,0,2.34,0c0,0,1.02-1.21.61-2.37s-2.04-5.63-2.04-5.63l-.28,1.18h-.01Z"/>
    <path class="cls-1" d="m5.07,114.2l-.68,2.27s-.31.75.34,1.51,1.26,0,1.26,0c0,0,.55-.67.33-1.31s-1.09-3.12-1.09-3.12l-.15.66h0Z"/>
    <path class="cls-1" d="m15.73,26.82l-.45,1.53s-.21.5.23,1.02.84,0,.84,0c0,0,.36-.45.22-.89s-.73-2.1-.73-2.1l-.1.44h-.01Z"/>
    <path class="cls-1" d="m6.86,49.46l-.45,1.53s-.21.5.23,1.02c.44.52.84,0,.84,0,0,0,.36-.45.22-.89s-.73-2.1-.73-2.1l-.1.44h-.01Z"/>
  </g>
  <g id="Layer_1-3" data-name="Layer 1">
    <path class="cls-1" d="m5.33,85.62l-.92,2.39s-.42.78.46,1.59,1.71,0,1.71,0c0,0,.74-.71.45-1.38s-1.49-3.29-1.49-3.29c0,0-.21.69-.21.69Z"/>
    <path class="cls-1" d="m14.88,173.66l-1.26,4.09s-.57,1.34.63,2.72,2.34,0,2.34,0c0,0,1.02-1.21.61-2.37s-2.04-5.63-2.04-5.63l-.28,1.18h-.01Z"/>
    <path class="cls-1" d="m6.45,197.71l-.68,2.27s-.31.75.34,1.51,1.26,0,1.26,0c0,0,.55-.67.33-1.31s-1.09-3.12-1.09-3.12l-.15.66h0Z"/>
    <path class="cls-1" d="m17.11,110.33l-.45,1.53s-.21.5.23,1.02.84,0,.84,0c0,0,.36-.45.22-.89s-.73-2.1-.73-2.1l-.1.44h-.01Z"/>
    <path class="cls-1" d="m8.24,132.97l-.45,1.53s-.21.5.23,1.02c.44.52.84,0,.84,0,0,0,.36-.45.22-.89s-.73-2.1-.73-2.1l-.1.44h-.01Z"/>
  </g>
  <g id="Layer_1-4" data-name="Layer 1">
    <path class="cls-1" d="m3.3,180.28l-.92,2.39s-.42.78.46,1.59,1.71,0,1.71,0c0,0,.74-.71.45-1.38s-1.49-3.29-1.49-3.29c0,0-.21.69-.21.69Z"/>
    <path class="cls-1" d="m12.85,268.32l-1.26,4.09s-.57,1.34.63,2.72,2.34,0,2.34,0c0,0,1.02-1.21.61-2.37s-2.04-5.63-2.04-5.63l-.28,1.18h-.01Z"/>
    <path class="cls-1" d="m4.42,292.37l-.68,2.27s-.31.75.34,1.51,1.26,0,1.26,0c0,0,.55-.67.33-1.31s-1.09-3.12-1.09-3.12l-.15.66h0Z"/>
    <path class="cls-1" d="m15.08,204.99l-.45,1.53s-.21.5.23,1.02.84,0,.84,0c0,0,.36-.45.22-.89s-.73-2.1-.73-2.1l-.1.44h-.01Z"/>
    <path class="cls-1" d="m6.21,227.63l-.45,1.53s-.21.5.23,1.02c.44.52.84,0,.84,0,0,0,.36-.45.22-.89s-.73-2.1-.73-2.1l-.1.44h-.01Z"/>
  </g>
  <g id="Layer_1-5" data-name="Layer 1">
    <path class="cls-1" d="m8.09,233.96l-.92,2.39s-.42.78.46,1.59,1.71,0,1.71,0c0,0,.74-.71.45-1.38s-1.49-3.29-1.49-3.29c0,0-.21.69-.21.69Z"/>
    <path class="cls-1" d="m17.64,322l-1.26,4.09s-.57,1.34.63,2.72,2.34,0,2.34,0c0,0,1.02-1.21.61-2.37s-2.04-5.63-2.04-5.63l-.28,1.18h-.01Z"/>
    <path class="cls-1" d="m9.21,346.05l-.68,2.27s-.31.75.34,1.51,1.26,0,1.26,0c0,0,.55-.67.33-1.31s-1.09-3.12-1.09-3.12l-.15.66h0Z"/>
    <path class="cls-1" d="m19.87,258.67l-.45,1.53s-.21.5.23,1.02.84,0,.84,0c0,0,.36-.45.22-.89s-.73-2.1-.73-2.1l-.1.44h-.01Z"/>
    <path class="cls-1" d="m11,281.31l-.45,1.53s-.21.5.23,1.02c.44.52.84,0,.84,0,0,0,.36-.45.22-.89s-.73-2.1-.73-2.1l-.1.44h-.01Z"/>
  </g>
  <g id="Layer_1-6" data-name="Layer 1">
    <path class="cls-1" d="m15.23,217.99l1.07,2.39s.48.78-.54,1.59-1.99,0-1.99,0c0,0-.87-.71-.52-1.38s1.73-3.29,1.73-3.29c0,0,.24.69.24.69Z"/>
    <path class="cls-1" d="m4.12,306.03l1.47,4.09s.66,1.34-.74,2.72-2.73,0-2.73,0c0,0-1.18-1.21-.71-2.37s2.37-5.63,2.37-5.63l.33,1.18h.01Z"/>
    <path class="cls-1" d="m13.93,330.08l.79,2.27s.36.75-.39,1.51-1.47,0-1.47,0c0,0-.64-.67-.38-1.31s1.27-3.12,1.27-3.12l.18.66h0Z"/>
    <path class="cls-1" d="m1.52,242.7l.52,1.53s.24.5-.27,1.02-.98,0-.98,0c0,0-.42-.45-.25-.89s.85-2.1.85-2.1l.11.44h.01Z"/>
    <path class="cls-1" d="m11.84,265.34l.52,1.53s.24.5-.27,1.02c-.51.52-.98,0-.98,0,0,0-.42-.45-.25-.89s.85-2.1.85-2.1l.11.44h.01Z"/>
  </g>
</svg>