<?xml version="1.0" encoding="UTF-8"?>
<svg xmlns="http://www.w3.org/2000/svg" viewBox="0 0 500.99 217">
  <defs>
    <style>
      .cls-1 {
        fill: #fff;
      }

      .cls-2 {
        stroke: #000;
      }

      .cls-3 {
        fill: none;
        stroke: #ef0006;
      }
    </style>
  </defs>
  <g id="Layer_2" data-name="Layer 2">
    <rect class="cls-2" x=".5" y=".5" width="499.99" height="216"/>
  </g>
  <g id="canvas">
    <path class="cls-1" d="m160.1,55.15c-.13-.9-.66-1.86-1.69-3.09-1.03-1.23-1.75-1.94-3.46-3.05-1.7-1.1-2.84-1.98-5.05-2.48-2.21-.5-3.52-.31-5.99-.02-2.46.3-3.64.26-6.33,1.5-2.68,1.24-4.37,2.62-7.1,4.72-2.74,2.11-4.13,3.34-6.58,5.8-2.45,2.46-3.88,3.69-5.68,6.49-1.79,2.8-2.5,4.37-3.3,7.51-.8,3.13-1.09,5.09-.71,8.16.38,3.06.92,4.55,2.63,7.16,1.71,2.61,3.04,3.93,5.9,5.86,2.87,1.94,4.7,2.84,8.42,3.82,3.72.97,5.76,1.24,10.2,1.05,4.45-.18,7-.59,12.01-1.97,5.01-1.39,7.79-2.54,13.04-4.96,5.25-2.43,8.08-4.06,13.19-7.15,5.11-3.09,7.81-4.83,12.37-8.28,4.57-3.46,6.81-5.46,10.43-8.99,3.62-3.52,5.26-5.47,7.67-8.66,2.41-3.19,3.14-4.53,4.37-7.29,1.24-2.77,1.69-5.14,1.79-6.56.11-1.42-.6-1.64-1.27-.53-.66,1.12-.86,3.49-2.08,6.12-1.22,2.63-1.75,3.9-4.02,7.04-2.27,3.14-3.83,5.13-7.34,8.66-3.51,3.53-5.73,5.55-10.22,8.99-4.5,3.44-7.18,5.18-12.25,8.23-5.07,3.05-7.89,4.67-13.09,7.03-5.2,2.35-7.96,3.47-12.89,4.76-4.93,1.29-7.45,1.63-11.75,1.72-4.3.08-6.23-.29-9.74-1.32-3.5-1.02-5.19-2-7.77-3.83-2.59-1.84-3.71-3.11-5.16-5.37-1.45-2.26-1.81-3.35-2.12-5.94-.31-2.6-.1-4.26.59-7.02.69-2.75,1.21-4.18,2.85-6.74s3.01-3.74,5.36-6.05c2.35-2.31,3.76-3.55,6.39-5.51,2.63-1.95,4.26-3.22,6.74-4.26,2.47-1.04,3.51-.86,5.64-.91,2.12-.06,3.2-.03,4.98.61,1.77.65,2.46,1.65,3.92,2.63,1.45.97,2.14,1.54,3.35,2.24,1.2.71,1.94,1.32,2.69,1.28.75-.03,1.18-.53,1.05-1.43"/>
    <path class="cls-1" d="m175.48,12.58c.02-.94-.49-2.38-1.42-3.19-.93-.8-1.91-1.16-3.25-.83s-2.54.72-3.48,2.44c-.95,1.72-.82,3.26-1.24,6.16-.43,2.9-.77,4.72-.89,8.33-.13,3.62.03,5.99.27,9.74.24,3.75.51,5.66.95,9.01.43,3.35.41,4.93,1.22,7.74.8,2.81,1.39,4.17,2.8,6.28s2.35,3.18,4.25,4.23c1.89,1.06,3.09,1.14,5.23,1.05,2.15-.1,3.27-.6,5.52-1.52,2.24-.93,3.42-1.66,5.69-3.11,2.27-1.46,3.57-2.68,5.67-4.17,2.1-1.51,3.25-2.22,4.84-3.34,1.59-1.13,2.26-1.75,3.1-2.27.83-.53.84-.96,1.08-.36.23.59-.25,1.67.08,3.36.34,1.67.66,2.87,1.6,5.04.95,2.17,1.52,3.6,3.13,5.8,1.61,2.2,2.62,3.41,4.91,5.19,2.28,1.77,3.7,2.48,6.52,3.67,2.81,1.19,4.37,1.7,7.55,2.29,3.18.6,5.25.73,8.36.69,3.11-.04,4.75-.42,7.19-.87,2.43-.46,4.01-.8,4.96-1.4.95-.6.85-1.33-.19-1.59-1.05-.26-2.65.07-5.05.3-2.4.23-3.95.8-6.94.85-2.98.06-4.96,0-7.97-.57-3.01-.57-4.5-1.09-7.08-2.27-2.58-1.18-3.87-1.93-5.83-3.63-1.96-1.7-2.75-2.81-3.98-4.87-1.23-2.07-1.41-3.44-2.16-5.47-.75-2.03-.87-2.99-1.58-4.65-.72-1.66-.97-2.79-2.02-3.66-1.05-.88-1.79-.93-3.25-.72-1.46.21-2.3.67-4.06,1.78-1.77,1.12-2.73,2.22-4.78,3.8-2.05,1.59-3.32,2.74-5.47,4.12-2.15,1.39-3.29,2-5.28,2.8-1.99.8-2.98,1.09-4.68,1.2-1.7.11-2.39.1-3.83-.65-1.44-.75-2.17-1.42-3.37-3.08-1.2-1.65-1.85-2.72-2.63-5.2-.78-2.48-.83-4.01-1.26-7.2-.43-3.2-.71-5.15-.88-8.78-.17-3.63-.27-5.92.02-9.35.29-3.44.92-5.25,1.42-7.82s.69-3.75,1.1-5.02c.41-1.26.64-1.24.97-1.32.33-.08.17.44.7.94.53.5,1.24,1.54,1.93,1.55.69.01,1.5-.53,1.52-1.46"/>
    <path class="cls-1" d="m263.76,48.93c.22-.8.29-2-.4-3.3-.69-1.3-1.43-2.4-3.05-3.19-1.61-.79-2.75-.87-5.02-.77-2.26.09-3.68.31-6.28,1.24s-4.09,1.77-6.68,3.42c-2.6,1.65-4.05,2.81-6.27,4.84-2.22,2.03-3.42,3.17-4.83,5.3-1.4,2.13-1.91,3.31-2.2,5.35-.29,2.04-.09,3.2.73,4.85.83,1.65,1.64,2.73,3.41,3.41,1.78.69,3.11.58,5.47.03,2.37-.56,3.76-1.4,6.36-2.81,2.61-1.4,4.1-2.26,6.68-4.21,2.57-1.95,4.02-3.52,6.2-5.55,2.18-2.03,3.52-3.2,4.72-4.62,1.2-1.42,1.12-2.05,1.26-2.47.14-.42-.18-.41-.55.37-.37.79-1.08,1.66-1.29,3.55-.21,1.89-.33,3.63.24,5.91.57,2.27,1.19,3.61,2.61,5.46,1.43,1.85,2.67,2.73,4.53,3.79,1.87,1.06,3.09,1.38,4.79,1.51,1.71.14,2.97-.31,3.72-.83.77-.51.7-1.13.09-1.74s-1.77-.73-3.17-1.3c-1.39-.56-2.35-.67-3.77-1.53-1.42-.86-2.44-1.44-3.33-2.76-.89-1.32-.87-2.1-1.11-3.82-.24-1.71.15-3.04-.1-4.76-.24-1.72-.55-2.76-1.15-3.83-.6-1.06-.87-1.4-1.84-1.48-.98-.1-1.58-.2-3.06,1.04s-2.3,3.01-4.33,5.13c-2.03,2.13-3.39,3.64-5.83,5.49-2.45,1.84-3.94,2.58-6.4,3.74-2.45,1.16-3.89,1.63-5.88,2.05-1.98.42-2.81.3-4.03.04-1.22-.27-1.61-.57-2.07-1.37-.46-.8-.54-1.32-.23-2.64.31-1.32.58-2.17,1.77-3.96,1.19-1.78,2.18-3.06,4.2-4.96,2.01-1.9,3.46-3.06,5.88-4.53,2.42-1.48,3.87-2.19,6.22-2.84,2.35-.64,3.7-.44,5.54-.38,1.84.05,2.54.22,3.64.67,1.1.44,1.21.89,1.87,1.54.65.64.82,1.49,1.4,1.67.58.19,1.29.07,1.51-.75"/>
    <path class="cls-1" d="m324.21,61.91c.59-.32,1.15-1.07,1.4-2.32.26-1.24.37-2.12-.11-3.9-.48-1.78-1-3.2-2.31-5.01s-2.11-2.79-4.22-4.02c-2.11-1.23-3.66-1.74-6.35-2.12-2.69-.39-4.27-.14-7.12.21-2.84.35-4.3.65-7.09,1.54-2.78.89-4.53,1.51-6.85,2.92-2.32,1.42-3.54,2.24-4.73,4.16-1.19,1.92-1.32,3.3-1.24,5.45.08,2.16.21,3.58,1.64,5.32,1.43,1.73,2.85,2.51,5.5,3.35,2.66.84,4.59.94,7.77.86,3.18-.08,4.97-.61,8.13-1.26,3.15-.66,4.94-1,7.64-2.01,2.7-1.02,4.28-1.59,5.86-3.05,1.58-1.45,1.72-2.68,2.03-4.23.31-1.55.05-2.47-.45-3.5-.5-1.04-1.44-1.6-2.04-1.67-.61-.07-1.02.77-1,1.35.03.58.86.93,1.13,1.54.27.61.52.77.23,1.51-.29.74-.36,1.14-1.68,2.2-1.32,1.05-2.46,2.05-4.89,3.08s-4.25,1.45-7.25,2.08c-3,.63-4.8,1.06-7.74,1.04-2.94-.01-4.75-.34-6.97-1.12-2.21-.77-3.04-1.64-4.09-2.76s-1.17-1.64-1.2-2.85c-.04-1.21.09-1.87,1.02-3.21.93-1.35,1.64-2.23,3.61-3.49,1.98-1.27,3.67-2.01,6.25-2.87,2.58-.85,4.04-1.12,6.67-1.39,2.63-.27,4.15-.42,6.47.04,2.32.45,3.59,1.07,5.12,2.25,1.54,1.17,1.69,2.11,2.56,3.6.87,1.5,1.25,2.71,1.8,3.87.55,1.16.76,1.21.95,1.96.19.74-.29,1.26.03,1.75.31.49.94,1.02,1.52.7"/>
    <path class="cls-1" d="m351.35,63.47c.54-.42.88-1.15.95-2.24.08-1.08.02-2.02-.58-3.21-.6-1.18-1.29-1.89-2.43-2.72-1.14-.83-1.76-1.1-3.27-1.44-1.5-.34-2.55-.51-4.26-.23-1.71.28-2.92.66-4.29,1.62s-1.98,1.75-2.57,3.17c-.59,1.41-.83,2.29-.37,3.89.46,1.59,1.04,2.77,2.68,4.11,1.64,1.33,3.04,1.61,5.51,2.57,2.47.97,4.04,1.27,6.85,2.25,2.81.97,4.51,1.56,7.18,2.62,2.67,1.07,4.19,1.73,6.16,2.71,1.97.98,2.84,1.48,3.69,2.19.85.7.78.83.56,1.32-.23.5-.47.44-1.7,1.13-1.22.69-2.16,1.55-4.43,2.35-2.28.8-4.01,1.18-6.95,1.66-2.94.48-4.7.61-7.78.75-3.08.14-6.08-.5-7.62-.08-1.54.42-1.6,1.61-.07,2.16,1.53.56,4.57.56,7.72.6,3.15.04,4.93-.09,8.04-.39,3.11-.31,4.94-.38,7.51-1.15,2.57-.77,3.92-1.41,5.35-2.71,1.42-1.29,1.56-2.21,1.79-3.75.23-1.54.34-2.53-.65-3.96-.98-1.43-2.14-2.05-4.3-3.18-2.16-1.13-3.75-1.44-6.48-2.49-2.73-1.05-4.45-1.65-7.19-2.74-2.75-1.09-4.32-1.59-6.54-2.71-2.22-1.13-3.16-2-4.56-2.93-1.4-.93-1.98-1.22-2.45-1.71-.46-.5-.33-.5.12-.76.45-.26,1.03-.26,2.12-.54,1.09-.27,2.06-.6,3.35-.85,1.28-.24,2.09-.44,3.07-.38.98.06,1.24.27,1.85.67.61.4.87.8,1.19,1.32.31.51.17.67.39,1.26.21.59.2,1.32.69,1.69.48.37,1.2.57,1.74.16"/>
    <path class="cls-1" d="m99.72,109.19c.29-.6.31-1.28-.08-2.23s-.71-1.72-1.89-2.52c-1.18-.8-2.06-1.52-4.01-1.5-1.96.02-3.43.5-5.79,1.61-2.35,1.1-3.47,2.14-5.99,3.91-2.51,1.78-4.06,2.7-6.59,4.95-2.54,2.25-4.23,3.75-6.09,6.32-1.85,2.57-2.67,4.1-3.19,6.52-.51,2.43-.41,3.75.62,5.6,1.03,1.85,2.03,2.6,4.54,3.66s4.38,1.22,8,1.6c3.62.38,5.76.45,10.11.29,4.35-.16,6.9-.47,11.63-1.07,4.74-.61,7.55-1.09,12.06-1.98,4.51-.89,6.63-1.37,10.48-2.49,3.85-1.11,7.1-2.12,8.77-3.07,1.66-.96,1.38-1.98-.45-1.7s-4.87,1.98-8.68,3.09c-3.81,1.1-5.91,1.56-10.37,2.43-4.47.87-7.27,1.37-11.97,1.92-4.69.55-7.24.81-11.51.83-4.26.03-6.39-.2-9.84-.72s-5.24-1.03-7.4-1.89c-2.16-.86-2.74-1.29-3.42-2.42-.68-1.13-.49-1.46.03-3.19.51-1.74.92-3.2,2.55-5.49,1.63-2.29,3.19-3.87,5.59-5.97,2.41-2.11,3.99-3.03,6.43-4.54s3.64-2.33,5.74-3c2.1-.66,3.32-.29,4.77-.3,1.45-.01,1.81,0,2.48.24.66.23.47.55.87.92.39.37.57.92,1.09.96.52.04,1.23-.16,1.51-.76"/>
    <path class="cls-1" d="m179.4,99.49c-.09-.71-.41-1.25-1.25-2.02-.83-.77-1.38-1.38-2.92-1.83-1.55-.45-2.71-.76-4.81-.4-2.1.36-3.28,1.05-5.69,2.2-2.41,1.15-3.88,1.93-6.37,3.54-2.5,1.62-3.96,2.65-6.1,4.53-2.14,1.87-3.25,2.91-4.58,4.85-1.34,1.94-1.89,3.03-2.11,4.85-.22,1.81.05,2.9,1.02,4.23.97,1.32,1.88,2.13,3.81,2.41,1.93.27,3.28-.21,5.84-1.05,2.56-.85,4.06-1.64,6.97-3.17,2.9-1.52,4.55-2.54,7.54-4.46,2.98-1.92,4.71-3.09,7.37-5.15,2.67-2.06,4.05-3.38,5.97-5.15,1.92-1.77,2.83-2.71,3.63-3.71.8-1,.53-1.32.36-1.31-.16,0-.51.31-1.18,1.36-.66,1.05-1.63,1.89-2.14,3.87-.51,1.99-.6,3.97-.4,6.07.19,2.11.77,2.86,1.37,4.45.6,1.59.83,2.54,1.62,3.49.79.95,1.69,1.25,2.33,1.25.64,0,.87-.62.86-1.23s-.6-.86-.9-1.81c-.3-.95-.41-1.69-.59-2.94-.18-1.25-.43-1.7-.29-3.3.14-1.59.77-2.85,1-4.68s.34-2.98.13-4.45c-.21-1.46-.45-2.24-1.17-2.87-.71-.62-1.13-.91-2.4-.23-1.26.68-2.02,1.81-3.91,3.62-1.89,1.81-3.01,3.32-5.56,5.42-2.55,2.09-4.25,3.22-7.17,5.04-2.92,1.82-4.61,2.76-7.44,4.06-2.83,1.29-4.4,1.84-6.73,2.41-2.33.56-3.44.39-4.91.42-1.47.03-1.91.12-2.43-.26-.52-.38-.56-.67-.18-1.64.37-.98.85-1.67,2.04-3.24,1.19-1.57,1.99-2.84,3.92-4.61,1.93-1.78,3.35-2.81,5.71-4.26,2.37-1.45,3.88-2.18,6.11-3,2.24-.83,3.34-1.02,5.06-1.14,1.72-.12,2.38.28,3.56.52,1.19.23,1.52.5,2.36.68.84.18,1.32.45,1.84.18.53-.27.9-.83.8-1.54"/>
    <path class="cls-1" d="m200.02,82.99c-.48.26-.5.69-.84,1.47-.34.78-.56,1.02-.87,2.44-.31,1.42-.57,2.65-.65,4.66-.08,2,.11,3.35.23,5.38.13,2.03.07,3.12.37,4.77.29,1.65.52,2.51,1.13,3.49.61.98,1.03,1.28,1.92,1.43.9.15,1.44.05,2.55-.7,1.11-.75,1.83-1.45,2.99-3.05s1.52-2.97,2.82-4.97c1.3-2,2.06-3.24,3.66-5.02,1.6-1.78,2.59-2.71,4.33-3.87,1.74-1.16,2.87-1.36,4.38-1.92,1.52-.56,2.21-.88,3.21-.88,1,0,1.19.07,1.79.85.6.77.8,1.54,1.2,3.03.4,1.49.45,2.54.8,4.44.35,1.9.51,2.98.95,5.07.45,2.08.64,3.24,1.26,5.38.63,2.14.87,3.28,1.86,5.34,1,2.05,1.7,3.4,3.13,4.91,1.43,1.52,2.56,1.89,4.01,2.66,1.45.77,2.04,1.02,3.26,1.21,1.21.18,2.21.09,2.82-.31.61-.39.63-1.09.23-1.67s-1.3-.66-2.23-1.23c-.94-.57-1.35-.83-2.46-1.62-1.1-.78-1.95-1.1-3.07-2.3-1.13-1.21-1.73-2.1-2.56-3.76s-1.07-2.62-1.58-4.54c-.51-1.92-.65-2.99-.98-5.02-.33-2.04-.26-3.1-.66-5.15-.4-2.06-.53-3.35-1.35-5.14-.82-1.79-1.52-2.74-2.75-3.82-1.24-1.08-1.87-1.33-3.44-1.59-1.57-.26-2.52-.31-4.41.28-1.88.58-3.04,1.24-5.02,2.63-1.98,1.4-3.03,2.46-4.85,4.32-1.83,1.86-2.7,3.11-4.28,4.97-1.57,1.86-2.5,2.72-3.61,4.31-1.12,1.59-1.55,2.52-1.98,3.63-.43,1.12-.28,1.67-.19,1.93.08.26.43.11.61-.61.19-.72.2-1.46.34-2.97.13-1.51.25-2.61.34-4.55s.09-3.27.1-5.18c.01-1.91.04-3-.05-4.37-.09-1.37-.19-1.67-.38-2.5-.19-.83-.14-1.29-.55-1.66-.42-.37-1.07-.45-1.54-.19"/>
    <path class="cls-1" d="m246.84,94.6c-.08.68.4,1.02.7,2.08.3,1.06.28,1.7.8,3.23.53,1.54,1.11,2.46,1.83,4.47.71,2.01.94,3.35,1.76,5.59.82,2.24,1.29,3.49,2.32,5.61,1.04,2.12,1.55,3.29,2.87,4.98,1.32,1.68,2.13,2.46,3.74,3.44,1.61.99,2.53,1.28,4.32,1.48,1.79.21,2.83.25,4.62-.44,1.79-.69,2.8-1.39,4.31-3.01,1.5-1.62,2.05-2.81,3.22-5.13,1.17-2.31,1.6-3.69,2.62-6.44,1.02-2.76,1.64-4.36,2.48-7.33.84-2.97,1.25-4.66,1.72-7.5.47-2.85.56-4.37.63-6.73.08-2.37.11-3.45-.28-5.09-.39-1.64-1.04-2.46-1.67-3.11-.64-.64-1.04-.45-1.51-.13-.47.33-.87,1.16-.84,1.77.03.62.37,1.45.97,1.32.6-.14,1.78-1.37,2.04-1.99.26-.61-.31-.88-.72-1.05-.41-.18-.93-.1-1.33.18-.39.26-.63.4-.63,1.16s.48,1.24.63,2.61c.16,1.37.16,2.15.14,4.25-.01,2.1.13,3.59-.23,6.25-.36,2.66-.73,4.26-1.54,7.06s-1.45,4.39-2.49,6.96c-1.03,2.57-1.56,3.9-2.68,5.88-1.12,1.98-1.72,2.78-2.92,4.02-1.2,1.24-1.82,1.68-3.07,2.2-1.25.53-1.94.53-3.18.41-1.25-.12-1.91-.25-3.05-1-1.14-.75-1.64-1.37-2.68-2.77s-1.61-2.34-2.5-4.21c-.89-1.88-1.3-2.98-1.96-5.16-.65-2.19-.66-3.67-1.3-5.79-.65-2.11-1.18-3.18-1.93-4.8-.75-1.61-1-2.33-1.82-3.25-.82-.92-1.6-1.34-2.28-1.34s-1.03.64-1.12,1.33"/>
    <path class="cls-1" d="m307.95,86.77c.51.03.8-.73.54-1.32-.26-.58-1.03-1.4-1.82-1.59-.8-.19-1.22-.1-2.14.63-.92.73-1.61,1.51-2.47,3.01-.87,1.51-1.23,2.55-1.87,4.53-.64,1.97-1.25,3.19-1.34,5.34-.09,2.16.09,3.6.87,5.41s1.53,2.65,3.02,3.62c1.49.97,2.5,1.22,4.43,1.24,1.94,0,3.26-.21,5.27-1.17,2.01-.96,3.03-1.94,4.77-3.63,1.75-1.69,2.6-2.73,3.95-4.81,1.35-2.08,2.21-3.39,2.8-5.59.59-2.2.43-3.87.14-5.4-.28-1.52-.93-1.97-1.56-2.21-.62-.23-1.17.04-1.56,1.02-.4.99-.77,2.13-.43,3.89s.93,2.93,2.15,4.92c1.22,1.99,2.21,3.14,3.94,5.04,1.73,1.9,2.63,2.81,4.71,4.47,2.08,1.66,3.35,2.43,5.68,3.82,2.32,1.39,3.66,2.05,5.93,3.11,2.26,1.07,3.54,1.86,5.39,2.24,1.86.38,3.07.03,3.89-.34.82-.37.8-.89.18-1.49-.62-.6-1.62-.79-3.3-1.51-1.67-.72-2.9-1.1-5.07-2.08-2.17-.97-3.56-1.5-5.76-2.79-2.2-1.3-3.4-2.08-5.25-3.69-1.84-1.62-2.64-2.48-3.98-4.38-1.34-1.9-1.85-3.31-2.73-5.12-.89-1.81-1.11-2.64-1.71-3.92-.61-1.29-.77-1.92-1.32-2.49-.56-.58-.99-.72-1.47-.42s-.61.72-.91,1.91c-.29,1.2-.07,2.33-.56,4.07-.48,1.74-.82,2.89-1.87,4.63-1.05,1.73-1.93,2.69-3.4,4.05-1.47,1.35-2.38,2.03-3.98,2.74-1.61.7-2.65.65-4.04.78-1.39.14-2.06.29-2.92-.11-.87-.41-1.12-.87-1.41-1.92-.29-1.05-.34-1.9-.04-3.31.29-1.41.83-2.32,1.54-3.75.7-1.43,1.24-2.14,1.98-3.41.75-1.26,1.43-1.91,1.77-2.93.34-1.02.24-1.54-.08-2.18-.31-.63-1.09-.91-1.49-.98-.39-.07-.79.2-.48.62.31.42,1.52,1.43,2.03,1.45"/>
    <path class="cls-1" d="m378.13,94.27c-.22-.83-.85-1.66-2.03-2.49s-1.98-1.16-3.89-1.67c-1.91-.51-3.3-.64-5.65-.87-2.35-.23-3.95-.47-6.1-.28s-3.32.38-4.66,1.24c-1.34.87-2.07,1.66-2.04,3.07.03,1.4.54,2.36,2.21,3.95,1.67,1.58,3.17,2.18,6.13,3.99,2.97,1.8,5.01,2.87,8.69,5.04,3.69,2.16,6.04,3.43,9.73,5.77,3.69,2.35,5.82,3.62,8.72,5.94,2.9,2.33,4.15,3.68,5.79,5.69,1.65,2.01,1.97,3,2.42,4.39.45,1.4.55,1.62-.15,2.58-.69.96-1.39,1.36-3.31,2.22-1.92.86-3.31,1.49-6.29,2.07-3,.58-4.93.66-8.67.82-3.73.17-6.09.21-9.99.01-3.9-.19-5.75-.49-9.51-.98-3.76-.49-5.88-.8-9.3-1.46-3.42-.67-5.04-.99-7.8-1.87-2.77-.88-3.98-1.51-6.03-2.54-2.04-1.02-2.85-1.64-4.21-2.56-1.37-.92-1.86-1.19-2.59-2.03-.74-.84-.73-1.62-1.1-2.16-.37-.55-.63-.28-.74-.57-.1-.29.4-.57.23-.87-.17-.3-.69-.8-1.11-.62-.41.18-.81.83-.97,1.54-.16.7-.12.96.16,1.97.27,1.02.33,1.95,1.21,3.11.88,1.17,1.58,1.77,3.18,2.73,1.61.97,2.6,1.23,4.85,2.1,2.25.86,3.52,1.44,6.41,2.22,2.89.77,4.55,1.04,8.04,1.65,3.49.61,5.6.9,9.4,1.39,3.81.49,5.67.79,9.61,1.05,3.94.26,6.3.28,10.11.26,3.81-.03,5.74.05,8.95-.4,3.21-.45,4.8-.7,7.08-1.85,2.28-1.14,3.33-2.11,4.29-3.88.97-1.78,1.05-2.96.54-4.98-.51-2.02-1.22-2.95-3.09-5.11-1.87-2.16-3.24-3.35-6.28-5.67-3.03-2.32-5.18-3.56-8.88-5.95-3.71-2.39-6.06-3.68-9.66-5.98-3.6-2.3-5.59-3.52-8.36-5.5-2.77-1.99-3.87-3.21-5.5-4.43-1.63-1.22-2.31-1.42-2.65-1.69-.34-.27-.02.2.95.34.97.14,1.99.25,3.91.33,1.92.08,3.53-.15,5.69.08,2.17.23,3.41.71,5.15,1.08,1.74.37,2.33.51,3.56.79,1.23.28,1.9.81,2.61.6.71-.2,1.16-.81.94-1.63"/>
    <path class="cls-3" d="m9.14,120.64c-.2.38-.28.77-.43,1.95-.15,1.18-.16,1.92-.34,3.96-.17,2.04-.29,3.42-.52,6.26-.22,2.84-.36,4.6-.59,7.92-.23,3.32-.37,5.25-.57,8.67-.2,3.42-.3,5.35-.42,8.42-.12,3.06-.17,4.66-.17,6.9s-.09,3.19.17,4.3c.26,1.11.61,1.4,1.15,1.23.54-.17.9-.71,1.55-2.1.65-1.39.95-2.62,1.7-4.85.75-2.22,1.2-3.8,2.06-6.26.87-2.45,1.37-3.92,2.27-5.99.9-2.07,1.41-3.09,2.22-4.37.81-1.28,1.23-1.63,1.83-2.02.6-.39.74-.3,1.19.07.45.37.61.8,1.04,1.79.43.99.77,1.73,1.1,3.18.33,1.45.51,2.4.55,4.08.04,1.68,0,2.7-.33,4.33-.32,1.63-.58,2.46-1.29,3.82-.71,1.36-1.24,1.97-2.27,2.96-1.03,1-1.65,1.42-2.86,2.02-1.21.6-1.97.75-3.2.95-1.23.2-1.96.15-2.97.04-1.01-.11-1.47-.24-2.06-.61-.59-.36-.79-.63-.9-1.21s-.08-.88.36-1.7c.44-.82.78-1.39,1.82-2.4,1.04-1.01,1.83-1.59,3.37-2.64s2.52-1.64,4.32-2.62c1.8-.99,2.86-1.49,4.7-2.31s2.83-1.17,4.51-1.78c1.68-.62,2.53-.89,3.89-1.3,1.37-.42,2.04-.59,2.94-.77.91-.18,1.18-.29,1.59-.13.41.16.39.35.45.94.05.59-.1,1.06-.17,1.99-.07.94-.18,1.62-.18,2.7s-.1,1.79.19,2.7c.29.91.57,1.41,1.23,1.85.67.44,1.18.59,2.12.34.94-.24,1.51-.66,2.58-1.56,1.07-.9,1.66-1.66,2.75-2.94,1.1-1.28,1.74-2.16,2.72-3.45.99-1.29,1.59-2.1,2.21-3,.62-.9.72-1.36.9-1.51.19-.15,0-.05.02.76.01.81.09,1.49.04,3.3-.05,1.81-.1,3.09-.28,5.75-.18,2.66-.29,4.29-.62,7.54-.34,3.25-.53,5.13-1.05,8.7s-.82,5.58-1.55,9.17c-.74,3.58-1.18,5.48-2.13,8.76s-1.48,4.93-2.63,7.63c-1.16,2.7-1.8,3.93-3.15,5.88-1.35,1.95-2.15,2.77-3.61,3.88-1.46,1.11-2.27,1.39-3.69,1.66-1.42.26-2.18.14-3.42-.34-1.24-.49-1.88-.96-2.77-2.09-.89-1.13-1.3-1.97-1.68-3.57-.38-1.6-.5-2.58-.23-4.44.27-1.86.58-2.92,1.58-4.86.99-1.95,1.66-2.95,3.41-4.89,1.74-1.94,3.16-3.06,5.31-4.81,2.16-1.74,3.56-2.6,5.47-3.91,1.91-1.3,3.34-2,4.1-2.6.75-.6.55-.84-.34-.4-.9.44-2.21,1.28-4.14,2.59-1.93,1.3-3.34,2.17-5.52,3.93-2.18,1.76-3.6,2.9-5.38,4.87-1.78,1.97-2.48,2.98-3.53,4.98-1.05,2-1.41,3.08-1.73,5.02-.32,1.94-.24,2.97.14,4.68.38,1.71.78,2.63,1.77,3.89.99,1.25,1.75,1.83,3.17,2.36,1.43.53,2.38.63,3.96.3,1.59-.32,2.44-.71,3.96-1.91,1.52-1.19,2.29-2.05,3.64-4.07,1.35-2.01,1.97-3.25,3.12-5.99,1.14-2.74,1.66-4.39,2.61-7.68.95-3.3,1.39-5.2,2.13-8.79.74-3.6,1.04-5.61,1.58-9.18s.74-5.46,1.13-8.71c.38-3.25.52-4.87.78-7.53.26-2.66.4-3.93.52-5.76.12-1.84.31-2.54.09-3.44-.22-.9-.6-1.1-1.2-1.05-.6.05-1.01.43-1.79,1.3-.79.88-1.16,1.79-2.13,3.08-.96,1.29-1.61,2.15-2.7,3.38-1.09,1.22-1.78,1.9-2.75,2.74-.97.84-1.45,1.16-2.08,1.44-.63.28-.78.27-1.06-.03-.29-.3-.28-.7-.36-1.48-.07-.78-.06-1.41-.02-2.44.03-1.03.24-1.7.21-2.69-.03-.99-.04-1.54-.36-2.27-.32-.73-.54-1.05-1.23-1.36-.69-.31-1.15-.36-2.21-.21-1.06.15-1.69.46-3.08.94s-2.2.79-3.89,1.44c-1.68.66-2.67,1.01-4.54,1.85-1.86.83-2.93,1.34-4.77,2.32-1.85.98-2.84,1.55-4.46,2.59-1.61,1.04-2.45,1.58-3.62,2.63-1.17,1.05-1.73,1.61-2.22,2.6s-.47,1.52-.26,2.37c.21.84.53,1.29,1.31,1.85.78.56,1.41.79,2.61.94,1.2.15,2.02.08,3.39-.2,1.38-.27,2.18-.48,3.49-1.17,1.31-.68,1.97-1.16,3.05-2.25,1.09-1.09,1.63-1.75,2.38-3.18.75-1.44,1-2.31,1.35-4,.35-1.7.41-2.73.41-4.48s-.12-2.71-.41-4.25c-.29-1.53-.49-2.34-1.03-3.42-.55-1.08-.94-1.56-1.71-1.97-.77-.4-1.3-.51-2.14-.07-.85.44-1.25.92-2.1,2.27-.85,1.35-1.27,2.39-2.16,4.5-.89,2.1-1.4,3.57-2.29,6.02-.89,2.45-1.39,4.03-2.18,6.23-.79,2.2-1.24,3.4-1.77,4.78-.53,1.38-.65,1.89-.87,2.1s-.1,0-.21-1.06c-.1-1.05-.27-1.99-.33-4.21-.05-2.22-.03-3.83.06-6.88.09-3.06.19-5,.39-8.41.2-3.41.34-5.35.61-8.66.26-3.31.42-5.08.7-7.91.28-2.83.46-4.2.7-6.24.25-2.04.43-2.76.53-3.94.11-1.19.12-1.58,0-1.99-.11-.4-.36-.43-.57-.05"/>
    <path class="cls-3" d="m140.26,147.56c.21-.19.37-.42.44-.98.07-.56.14-1-.09-1.82-.24-.82-.43-1.44-1.08-2.27-.65-.83-1.11-1.34-2.16-1.88-1.04-.53-1.73-.81-3.06-.78-1.32.03-2.12.18-3.55.94-1.43.76-2.22,1.37-3.6,2.85-1.38,1.48-2.16,2.5-3.29,4.56-1.13,2.05-1.69,3.43-2.36,5.7-.67,2.28-.9,3.66-.96,5.67-.07,2.01.02,3.07.63,4.39.62,1.31,1.24,1.94,2.45,2.17,1.2.23,2.06-.04,3.58-1.01,1.52-.98,2.37-1.83,4.03-3.87,1.66-2.04,2.63-3.42,4.29-6.33,1.65-2.91,2.52-4.8,3.98-8.22,1.46-3.41,2.19-5.46,3.33-8.85,1.14-3.39,1.66-5.27,2.37-8.08.7-2.82.94-4.17,1.15-6s.21-2.56-.09-3.14c-.3-.58-.87-.58-1.42.22-.55.8-.78,1.7-1.32,3.79-.53,2.09-.87,3.59-1.34,6.64-.48,3.05-.75,5.08-1.03,8.61-.29,3.54-.39,5.66-.4,9.07-.01,3.41,0,5.24.34,7.98.34,2.74.6,4,1.39,5.72.78,1.73,1.3,2.38,2.53,2.9s2.11.37,3.64-.3c1.53-.68,2.37-1.47,4.01-3.07,1.63-1.59,2.54-2.8,4.17-4.91,1.63-2.11,2.53-3.5,3.97-5.63,1.44-2.13,2.16-3.35,3.23-5.03,1.07-1.69,1.61-2.41,2.11-3.39.51-.98.51-1.29.42-1.53-.09-.24-.42-.17-.87.32-.45.49-.82,1.02-1.37,2.13-.55,1.11-.86,1.95-1.37,3.42s-.8,2.41-1.2,3.93c-.4,1.52-.67,2.41-.79,3.67-.12,1.26-.15,1.94.19,2.65.34.71.79.97,1.53.88.74-.09,1.32-.42,2.19-1.33.87-.91,1.33-1.71,2.19-3.21.86-1.49,1.36-2.54,2.12-4.26.75-1.73,1.15-2.79,1.66-4.37.5-1.58.79-2.39.86-3.55.07-1.15-.07-1.7-.54-2.22-.46-.52-1.01-.64-1.79-.38-.79.26-1.37.7-2.14,1.68-.77.98-1.13,1.77-1.7,3.24-.57,1.46-.86,2.43-1.15,4.09-.28,1.66-.38,2.68-.25,4.22.13,1.54.29,2.35.91,3.48.62,1.13,1.1,1.68,2.19,2.15,1.1.48,1.9.52,3.29.24,1.39-.28,2.21-.68,3.67-1.66,1.47-.97,2.25-1.74,3.67-3.2,1.42-1.46,2.19-2.44,3.44-4.08,1.25-1.64,1.87-2.66,2.8-4.11.93-1.45,1.47-2.28,1.87-3.13.39-.85.24-1.21.12-1.13s-.45.44-.71,1.51c-.26,1.07-.37,2.07-.58,3.82-.22,1.76-.42,3.01-.49,4.95-.07,1.94-.12,3.11.13,4.76.26,1.66.43,2.46,1.14,3.51.72,1.06,1.29,1.55,2.44,1.77,1.16.22,1.97.02,3.33-.68,1.36-.71,2.11-1.4,3.48-2.85,1.36-1.45,2.14-2.5,3.34-4.38,1.2-1.88,1.82-3.12,2.67-5.01.85-1.89,1.18-3.01,1.59-4.44.4-1.43.48-2.05.44-2.71-.04-.67-.36-.74-.63-.61-.26.13-.62.58-.69,1.25-.08.68-.1,1.34.31,2.14.4.8.86,1.29,1.71,1.87.85.58,1.41.85,2.54,1.04,1.13.19,1.83.17,3.09-.09,1.26-.26,1.96-.6,3.19-1.22,1.23-.63,1.9-1.14,2.98-1.92,1.08-.78,1.76-1.32,2.4-1.97.65-.66.74-1.14.82-1.31.08-.17-.2-.14-.42.45-.22.59-.41,1.2-.69,2.51-.29,1.31-.51,2.34-.74,4.05-.22,1.71-.37,2.79-.38,4.49,0,1.7.01,2.65.36,4.01.35,1.36.53,2.1,1.38,2.8s1.7.72,2.86.66c1.16-.05,1.97-.4,2.94-.92.98-.52,1.64-1.23,1.94-1.67.29-.43.08-.62-.45-.51-.53.11-1.3.66-2.21,1.07-.91.41-1.48.83-2.35.97-.87.14-1.37.25-1.99-.26-.62-.52-.81-1.09-1.1-2.32s-.39-2.18-.37-3.82c.03-1.63.21-2.7.5-4.37.29-1.67.66-2.65.93-3.96.27-1.32.5-1.91.44-2.62-.07-.71-.26-.9-.75-.93-.5-.04-.94.2-1.74.75-.8.55-1.27,1.23-2.28,1.99-1,.77-1.63,1.26-2.74,1.84-1.11.58-1.78.81-2.84,1.03-1.06.21-1.62.2-2.47.05-.85-.16-1.23-.37-1.79-.84-.56-.47-.68-.89-1.01-1.51-.34-.62-.44-1.06-.67-1.59-.22-.53-.29-.95-.46-1.07-.18-.12-.23-.14-.43.47-.19.62-.15,1.2-.54,2.59-.39,1.4-.6,2.52-1.41,4.38-.81,1.86-1.44,3.09-2.63,4.92-1.19,1.83-2.01,2.86-3.33,4.23-1.33,1.37-2.12,1.97-3.3,2.61-1.18.64-1.72.74-2.6.59-.88-.15-1.22-.44-1.79-1.34-.58-.91-.85-1.63-1.08-3.2-.23-1.56-.19-2.73-.08-4.63.11-1.9.36-3.14.62-4.87.26-1.73.59-2.69.67-3.8s.02-1.54-.29-1.74-.67-.01-1.26.78c-.6.79-.84,1.73-1.72,3.18-.88,1.45-1.46,2.48-2.68,4.1-1.22,1.62-2,2.58-3.4,3.98-1.4,1.4-2.21,2.13-3.59,3.02-1.39.89-2.16,1.17-3.33,1.42-1.17.25-1.68.19-2.54-.18-.85-.37-1.21-.72-1.73-1.69-.52-.97-.74-1.72-.86-3.15-.12-1.43-.04-2.44.26-4.02.3-1.58.65-2.52,1.25-3.88.6-1.37,1.11-2.03,1.74-2.94.63-.91,1-1.3,1.43-1.62.43-.32.57-.36.72,0,.15.36.17.78.04,1.82-.13,1.05-.22,1.87-.67,3.41-.46,1.54-.86,2.6-1.63,4.29-.76,1.68-1.32,2.7-2.2,4.12-.89,1.42-1.5,2.1-2.21,2.97-.72.88-1.02,1.22-1.38,1.4-.36.18-.36.07-.43-.49-.07-.57-.06-1.15.1-2.33.15-1.18.28-2.09.68-3.56.4-1.47.74-2.4,1.32-3.82.57-1.42,1.06-2.17,1.54-3.28.48-1.11.75-1.65.88-2.25.13-.6.03-.85-.22-.75-.26.1-.47.3-1.06,1.24-.59.94-.89,1.76-1.9,3.46-1.01,1.7-1.72,2.92-3.15,5.04-1.42,2.13-2.34,3.51-3.97,5.59-1.63,2.08-2.57,3.26-4.16,4.8-1.59,1.54-2.45,2.26-3.81,2.91-1.35.65-1.91.78-2.96.34-1.05-.44-1.53-.91-2.28-2.53-.75-1.62-1.08-2.88-1.45-5.58-.36-2.7-.39-4.54-.38-7.93,0-3.4.11-5.52.43-9.05.31-3.52.62-5.54,1.15-8.57.53-3.03.93-4.52,1.49-6.57.56-2.04,1.01-2.83,1.31-3.64.3-.81.18-.92.2-.41.02.51.13,1.19-.08,2.98-.22,1.79-.34,3.16-1,5.96-.66,2.81-1.18,4.69-2.3,8.07-1.13,3.38-1.86,5.42-3.34,8.82-1.47,3.39-2.35,5.28-4.03,8.15-1.67,2.87-2.68,4.23-4.34,6.2-1.66,1.97-2.6,2.75-3.98,3.65-1.38.9-1.97,1.01-2.93.84-.96-.17-1.35-.55-1.86-1.71-.5-1.16-.71-2.18-.66-4.11.05-1.93.25-3.31.9-5.54.65-2.22,1.22-3.59,2.34-5.58,1.13-1.99,1.94-2.98,3.29-4.37,1.35-1.38,2.17-1.91,3.47-2.54,1.3-.64,1.97-.65,3.02-.62,1.05.03,1.49.3,2.23.77.74.47,1.01.91,1.47,1.6.46.7.58,1.21.85,1.88.26.67.32,1.01.48,1.47.16.47.14.69.32.87.18.18.39.22.6.03"/>
    <path class="cls-3" d="m244.11,140.88c-.09-.25-.25-.49-.75-.77-.5-.28-.89-.53-1.77-.64-.88-.1-1.54-.21-2.63.14-1.1.35-1.73.66-2.84,1.6-1.11.94-1.69,1.61-2.72,3.12-1.03,1.5-1.61,2.52-2.42,4.4-.81,1.87-1.24,3.07-1.64,4.97-.4,1.9-.52,3.01-.36,4.52.16,1.51.38,2.31,1.16,3.04.79.74,1.54.96,2.76.63,1.23-.33,1.95-.89,3.38-2.29,1.42-1.4,2.24-2.44,3.74-4.73,1.51-2.29,2.36-3.78,3.78-6.73,1.42-2.95,2.13-4.78,3.33-8.01,1.21-3.23,1.8-5.1,2.72-8.13.92-3.04,1.34-4.66,1.9-7.06.56-2.4.85-3.56.91-4.94.06-1.38-.17-1.86-.62-1.95s-.96.29-1.6,1.51c-.65,1.22-.98,2.3-1.62,4.58-.63,2.28-1.03,3.84-1.55,6.81-.52,2.98-.78,4.84-1.05,8.06-.27,3.23-.35,5.04-.29,8.08.07,3.04.16,4.62.62,7.1s.76,3.63,1.67,5.27c.91,1.64,1.5,2.28,2.86,2.92,1.36.64,2.27.67,3.94.26,1.68-.42,2.79-1.23,4.43-2.34,1.64-1.11,2.52-2,3.76-3.22,1.24-1.21,2.06-2.22,2.44-2.86.39-.64.12-.81-.51-.35-.62.46-1.35,1.52-2.61,2.67-1.25,1.16-2.11,2.04-3.66,3.12-1.55,1.08-2.62,1.84-4.1,2.27-1.49.43-2.15.41-3.34-.13-1.2-.54-1.77-1.05-2.64-2.58-.87-1.53-1.24-2.67-1.71-5.1-.48-2.43-.59-4.02-.66-7.03-.07-3.01,0-4.82.29-8.03.29-3.21.57-5.07,1.13-8.01.57-2.95,1.02-4.5,1.7-6.74.68-2.24,1.21-3.24,1.69-4.45.49-1.21.61-1.62.74-1.59.14.02.1.38-.06,1.71-.16,1.32-.24,2.5-.75,4.88-.51,2.39-.91,4.02-1.8,7.05-.9,3.03-1.49,4.89-2.7,8.11-1.21,3.21-1.92,5.04-3.37,7.96-1.44,2.92-2.33,4.39-3.86,6.62-1.53,2.23-2.42,3.24-3.79,4.55-1.37,1.3-2.11,1.66-3.07,1.98-.97.32-1.22.22-1.75-.37-.54-.59-.81-1.21-.94-2.59-.13-1.38-.1-2.49.28-4.32.38-1.83.79-3.03,1.61-4.84.81-1.81,1.42-2.82,2.45-4.22,1.03-1.4,1.66-2.01,2.71-2.78,1.05-.77,1.63-.84,2.53-1.06.9-.22,1.28-.1,1.95-.05.67.05.93.21,1.4.31.48.09.71.21.98.15.26-.06.41-.21.33-.46"/>
    <path class="cls-3" d="m308.48,142.33c-.03-.26-.17-.52-.58-.93-.41-.41-.68-.74-1.47-1.12-.79-.38-1.38-.68-2.47-.77-1.1-.09-1.76-.12-3,.29-1.24.42-1.97.79-3.2,1.79-1.23,1-1.91,1.71-2.93,3.21-1.03,1.49-1.58,2.52-2.19,4.27-.62,1.76-.83,2.87-.88,4.5-.05,1.62.03,2.51.63,3.62.6,1.11,1.19,1.67,2.36,1.92,1.16.26,2.04.07,3.46-.64,1.42-.71,2.2-1.45,3.63-2.91,1.43-1.46,2.21-2.55,3.51-4.39,1.3-1.84,2.01-3.04,3-4.81.99-1.78,1.49-2.77,1.96-4.09.46-1.32.48-2,.37-2.49-.12-.49-.62-.55-.96.02-.34.57-.53,1.22-.75,2.82-.23,1.6-.3,2.73-.39,5.2-.09,2.47-.07,4.06-.06,7.17,0,3.11.09,4.96.12,8.38.03,3.42.1,5.33.04,8.74-.06,3.41-.07,5.25-.35,8.32-.28,3.06-.46,4.6-1.07,6.99-.61,2.4-1.05,3.46-1.99,4.99-.94,1.53-1.57,2.06-2.69,2.68-1.12.63-1.74.66-2.92.45-1.18-.21-1.87-.55-2.98-1.49-1.11-.94-1.8-1.63-2.59-3.21-.79-1.58-1.17-2.61-1.36-4.68-.19-2.07-.17-3.33.41-5.67.57-2.34,1.1-3.66,2.45-6.05,1.35-2.39,2.33-3.64,4.3-5.89,1.97-2.25,3.2-3.36,5.55-5.35,2.35-1.99,3.74-2.92,6.21-4.61,2.47-1.7,3.83-2.46,6.15-3.87,2.31-1.4,3.5-2.04,5.42-3.13,1.93-1.09,2.86-1.52,4.23-2.33,1.36-.81,1.94-1.1,2.58-1.72.64-.62.69-.94.61-1.4-.09-.46-.36-.72-1.03-.9-.67-.18-1.29-.28-2.31-.02-1.02.26-1.72.58-2.79,1.31-1.07.74-1.66,1.26-2.55,2.36-.89,1.1-1.37,1.82-1.88,3.16-.51,1.34-.72,2.17-.69,3.55.02,1.38.19,2.21.81,3.35.63,1.14,1.15,1.73,2.31,2.35,1.17.62,2.03.78,3.51.76,1.48-.02,2.37-.21,3.88-.86,1.52-.65,2.37-1.21,3.71-2.39,1.35-1.17,2.07-1.98,3.02-3.48.95-1.5,1.34-2.44,1.72-4.04.39-1.6.39-2.51.2-3.97-.19-1.45-.52-2.19-1.16-3.29-.64-1.1-1.19-1.59-2.04-2.2-.86-.61-1.49-.77-2.23-.87-.74-.09-1.19.1-1.46.4-.27.3-.29.69.1,1.12.39.43.81.79,1.85,1.05,1.04.27,1.84.26,3.34.28,1.49.03,2.43-.03,4.14-.15,1.71-.12,2.73-.3,4.41-.46,1.69-.16,2.62-.31,4.03-.35,1.4-.04,2.1-.1,2.98.13.89.22,1.1.32,1.44.99.34.67.37,1.14.29,2.37-.08,1.23-.29,2.13-.69,3.76-.4,1.62-.79,2.74-1.29,4.37-.51,1.62-.98,2.54-1.23,3.77-.26,1.22-.32,1.83-.05,2.35.26.53.63.66,1.36.28.72-.37,1.2-.96,2.27-2.15,1.07-1.19,1.75-2.2,3.1-3.81,1.35-1.6,2.21-2.72,3.63-4.23,1.42-1.51,2.28-2.33,3.44-3.32,1.16-.98,1.7-1.32,2.37-1.59.67-.27.75-.2.99.26s.17.95.19,2.03c.02,1.08-.04,1.92-.08,3.37-.04,1.45-.13,2.41-.13,3.9s-.14,2.35.13,3.53c.27,1.18.46,1.84,1.23,2.36.77.52,1.51.47,2.59.27,1.08-.2,1.85-.66,2.79-1.27.94-.61,1.64-1.33,1.92-1.79.28-.46.05-.67-.51-.53-.56.13-1.39.7-2.31,1.21-.92.51-1.49,1.03-2.27,1.33-.78.3-1.16.52-1.61.17-.45-.35-.48-.86-.64-1.92-.16-1.06-.16-1.92-.15-3.36,0-1.44.13-2.4.2-3.87.07-1.46.27-2.3.14-3.47-.13-1.17-.24-1.77-.79-2.36-.55-.59-1.03-.8-1.98-.58-.94.23-1.5.68-2.74,1.71-1.24,1.03-2.02,1.9-3.46,3.43-1.44,1.52-2.35,2.61-3.74,4.2-1.39,1.58-2.18,2.54-3.21,3.72-1.03,1.18-1.51,1.7-1.94,2.17s-.27.57-.19.2c.08-.37.26-.89.6-2.05s.61-2.12,1.09-3.75.89-2.74,1.31-4.4c.42-1.66.72-2.55.79-3.9.07-1.34.08-1.95-.42-2.82-.5-.87-.98-1.2-2.07-1.54-1.09-.34-1.89-.21-3.39-.16s-2.41.25-4.1.4c-1.69.16-2.69.33-4.37.39-1.67.06-2.59.03-3.99-.09-1.39-.12-2.06-.34-2.99-.5-.93-.16-1.26-.23-1.67-.31-.41-.08-.46-.1-.38-.07.09.03.33,0,.83.2.5.2.96.29,1.68.81.72.52,1.29.83,1.9,1.78.62.94.97,1.61,1.18,2.94.21,1.33.22,2.2-.13,3.7-.35,1.5-.72,2.4-1.63,3.82-.91,1.42-1.63,2.18-2.9,3.27-1.28,1.09-2.1,1.59-3.48,2.17-1.39.58-2.18.7-3.44.71-1.27.02-1.94-.12-2.9-.64-.96-.51-1.37-.95-1.89-1.92-.52-.97-.7-1.71-.72-2.95-.01-1.23.16-2.01.65-3.22.5-1.21.97-1.88,1.82-2.84.86-.95,1.48-1.35,2.46-1.93.98-.59,1.61-.69,2.43-.99.82-.3,1.2-.41,1.65-.5.45-.09.63-.1.59.06-.04.17-.15.27-.78.76-.63.5-1.08.88-2.37,1.72-1.29.83-2.2,1.32-4.1,2.46-1.9,1.13-3.07,1.79-5.38,3.21-2.3,1.42-3.67,2.2-6.14,3.91s-3.87,2.64-6.24,4.65c-2.37,2.01-3.61,3.13-5.61,5.4-2,2.27-3,3.52-4.39,5.94-1.39,2.42-1.94,3.76-2.56,6.16-.62,2.39-.67,3.68-.52,5.83.16,2.15.5,3.24,1.3,4.93.81,1.69,1.48,2.47,2.72,3.51,1.24,1.04,2.07,1.49,3.47,1.7,1.4.21,2.26.08,3.53-.66,1.27-.73,1.88-1.37,2.83-3.01.95-1.63,1.34-2.71,1.93-5.15.59-2.44.75-3.98,1.01-7.06.27-3.08.27-4.92.33-8.34.07-3.42,0-5.32-.01-8.75-.01-3.42-.09-5.27-.04-8.38.04-3.1.08-4.69.26-7.14.17-2.45.4-3.54.63-5.12.23-1.57.47-2.15.51-2.75.03-.6-.12-.65-.33-.24-.22.4-.26,1-.76,2.27-.5,1.26-.81,2.29-1.75,4.05-.94,1.76-1.66,2.95-2.95,4.75-1.29,1.8-2.11,2.87-3.5,4.26-1.39,1.39-2.21,2.04-3.45,2.68-1.23.64-1.84.71-2.72.53-.88-.18-1.22-.5-1.68-1.43-.46-.94-.65-1.74-.61-3.25.04-1.51.22-2.62.81-4.29.59-1.67,1.15-2.67,2.15-4.07,1-1.4,1.7-2.06,2.85-2.93,1.15-.86,1.87-1.1,2.91-1.38,1.05-.28,1.48-.16,2.32-.03.84.13,1.23.41,1.89.7.65.29.91.5,1.39.73.48.23.73.4,1.03.4.29,0,.47-.13.44-.39"/>
    <path class="cls-3" d="m384.83,137.59c.18.12.28.09.77.15s.79.08,1.68.12c.89.04,1.52-.02,2.79.07,1.27.1,2.09.18,3.55.4,1.46.22,2.37.37,3.73.7s2.1.58,3.1.93c1,.35,1.49.48,1.89.84.41.35.44.45.13.94-.31.49-.72.77-1.69,1.5-.97.74-1.73,1.22-3.17,2.19-1.44.97-2.43,1.55-4.03,2.64-1.59,1.09-2.58,1.68-3.94,2.8-1.35,1.11-2.06,1.68-2.85,2.78-.78,1.1-1.08,1.71-1.06,2.73.02,1.03.3,1.6,1.15,2.39.86.79,1.6,1.08,3.11,1.57,1.51.48,2.54.64,4.43.86,1.89.22,3.07.24,5.02.25,1.95,0,3.05-.07,4.76-.22s2.62-.26,3.79-.51c1.17-.24,1.52-.43,2.07-.72.55-.29.59-.44.67-.74.08-.29-.07-.47-.27-.72-.19-.24-.42-.43-.7-.49-.27-.06-.5.02-.68.17s-.27.39-.23.61.2.4.43.48.51-.04.72-.08c.21-.04.38-.13.33-.12-.06,0-.11.04-.63.15-.52.11-.86.18-1.98.4-1.12.22-1.97.49-3.62.69-1.65.19-2.73.27-4.64.26-1.9,0-3.07-.05-4.88-.29-1.81-.23-2.81-.43-4.18-.89-1.37-.45-1.95-.75-2.66-1.36-.71-.61-.89-.91-.9-1.71-.01-.79.15-1.27.84-2.25.69-.98,1.32-1.57,2.62-2.64,1.3-1.07,2.28-1.67,3.87-2.73s2.6-1.61,4.1-2.54c1.49-.93,2.34-1.3,3.37-2.13,1.03-.82,1.49-1.23,1.79-1.99.29-.76.18-1.16-.31-1.81-.48-.64-1.02-.95-2.11-1.41-1.09-.46-1.91-.57-3.34-.9-1.43-.33-2.33-.47-3.81-.76-1.49-.28-2.3-.46-3.61-.64-1.32-.18-2-.28-2.97-.26-.96.02-1.34.19-1.86.36-.52.17-.62.29-.74.47-.12.18-.05.32.13.44"/>
    <path class="cls-3" d="m398.01,150.36c.28.12.55.23,1.32.13.77-.09,1.22-.22,2.55-.61,1.33-.39,2.25-.74,4.1-1.33,1.85-.59,3.04-.99,5.18-1.63s3.36-1.04,5.52-1.56c2.16-.52,3.36-.74,5.27-1.04,1.92-.3,2.85-.37,4.3-.46,1.46-.08,2.1.01,2.97.04.87.02,1.13.02,1.39.08.26.05.21.07-.09.18-.31.12-.63.09-1.44.39-.81.3-1.43.53-2.59,1.12-1.16.59-1.88.95-3.21,1.83-1.33.88-2.14,1.4-3.44,2.58-1.3,1.18-2.06,1.93-3.07,3.3-1.01,1.37-1.47,2.19-1.98,3.54-.5,1.36-.69,2.14-.54,3.24.15,1.1.5,1.69,1.3,2.25.81.56,1.5.74,2.72.56,1.22-.19,1.97-.57,3.36-1.49,1.4-.92,2.22-1.66,3.62-3.1,1.4-1.44,2.17-2.47,3.39-4.13,1.22-1.67,1.91-2.74,2.72-4.18.81-1.44,1.16-2.25,1.3-3.03.15-.78-.21-1.06-.58-.85-.37.21-.83.73-1.25,1.9s-.68,2.26-.86,3.95c-.18,1.69-.27,2.85-.04,4.49.22,1.64.41,2.6,1.17,3.69.77,1.09,1.39,1.58,2.66,1.79,1.27.21,2.08.04,3.68-.74,1.6-.78,2.5-1.45,4.31-3.16,1.81-1.7,2.85-2.92,4.71-5.35,1.87-2.43,2.95-3.97,4.61-6.8,1.66-2.84,2.47-4.55,3.69-7.37,1.22-2.82,1.75-4.39,2.4-6.72.65-2.33.84-3.42.83-4.95-.01-1.53-.2-2.15-.88-2.69-.68-.55-1.41-.62-2.51-.03-1.1.59-1.79,1.27-3.01,2.98-1.22,1.7-1.96,2.96-3.1,5.53-1.14,2.57-1.79,4.31-2.6,7.32-.81,3.01-1.17,4.82-1.44,7.71-.27,2.9-.26,4.44.12,6.77s.73,3.42,1.78,4.88c1.05,1.46,1.84,1.97,3.46,2.42,1.63.45,2.7.33,4.66-.18,1.96-.51,3.14-1.08,5.16-2.38,2.02-1.3,3.16-2.3,4.94-4.1,1.77-1.8,2.68-3,3.91-4.91,1.23-1.91,1.73-3.02,2.25-4.65.51-1.63.62-2.47.31-3.52-.31-1.05-.85-1.5-1.83-1.73-.98-.22-1.83-.08-3.08.6-1.24.68-2.02,1.37-3.14,2.78-1.12,1.4-1.73,2.42-2.46,4.26-.74,1.84-1.06,3.01-1.21,4.92-.15,1.91-.1,3.01.46,4.61.56,1.6,1.06,2.44,2.31,3.4,1.25.96,2.15,1.3,3.94,1.4,1.8.1,2.9-.15,5.03-.9,2.13-.75,3.35-1.45,5.6-2.87,2.25-1.42,3.52-2.45,5.64-4.24,2.13-1.79,3.22-2.94,4.99-4.71,1.77-1.77,2.61-2.75,3.85-4.14,1.24-1.38,1.83-1.97,2.37-2.79.53-.82.44-1.12.31-1.3-.13-.18-.55-.06-.96.39-.41.45-.82.9-1.09,1.86-.26.96-.27,1.68-.22,2.95.05,1.27.16,2.03.46,3.41.31,1.38.6,2.13,1.06,3.49.46,1.35.79,2.05,1.24,3.29.45,1.23.74,1.84,1.02,2.88.29,1.04.42,1.53.41,2.32-.02.79-.09,1.1-.49,1.65-.39.54-.75.72-1.5,1.06-.75.34-1.29.45-2.23.64-.93.19-1.52.26-2.43.31-.91.04-1.41-.05-2.1-.09-.69-.04-.92-.06-1.32-.11-.41-.04-.52-.13-.7-.1-.18.04-.27.11-.2.28.07.17.16.33.56.57.39.23.65.42,1.42.6.77.17,1.37.3,2.4.28,1.04-.02,1.72-.11,2.79-.38,1.06-.27,1.67-.45,2.54-.96.87-.5,1.3-.82,1.81-1.56.51-.75.68-1.21.73-2.16.04-.95-.17-1.5-.5-2.61-.33-1.11-.66-1.69-1.14-2.92-.48-1.23-.81-1.92-1.25-3.25-.44-1.33-.72-2.07-.95-3.4-.22-1.33-.25-2.06-.19-3.24.07-1.18.37-1.76.52-2.66.15-.9.22-1.32.25-1.84.03-.52.12-.78-.1-.75-.23.02-.4.12-1.03.87-.63.75-.95,1.46-2.12,2.88-1.17,1.41-1.99,2.4-3.72,4.17-1.73,1.77-2.83,2.91-4.94,4.68-2.11,1.77-3.38,2.77-5.6,4.15-2.22,1.38-3.45,2.04-5.49,2.75s-3.07.89-4.69.8c-1.63-.09-2.33-.38-3.43-1.24-1.1-.86-1.58-1.58-2.08-3.06-.5-1.48-.59-2.54-.43-4.36.15-1.82.48-2.97,1.21-4.71.74-1.75,1.38-2.71,2.46-4.01,1.08-1.3,1.89-1.85,2.93-2.48,1.04-.63,1.61-.78,2.28-.68.67.1.9.32,1.09,1.19.19.87.29,1.62-.16,3.16-.45,1.54-.91,2.66-2.09,4.53-1.18,1.87-2.09,3.06-3.82,4.82-1.73,1.76-2.88,2.73-4.84,3.98-1.96,1.25-3.12,1.77-4.95,2.26s-2.75.59-4.22.21c-1.47-.38-2.14-.76-3.12-2.11-.98-1.35-1.38-2.39-1.77-4.65-.39-2.26-.41-3.8-.16-6.66.26-2.86.62-4.67,1.45-7.64.82-2.97,1.5-4.7,2.67-7.22,1.17-2.51,1.97-3.75,3.17-5.36,1.21-1.61,1.97-2.1,2.85-2.69.87-.59,1.11-.66,1.53-.25.43.41.61.87.6,2.3-.02,1.43-.07,2.53-.67,4.83-.6,2.3-1.11,3.88-2.31,6.68-1.2,2.8-2.01,4.51-3.67,7.32-1.66,2.81-2.76,4.34-4.63,6.72-1.87,2.39-2.96,3.59-4.75,5.22s-2.75,2.23-4.21,2.93c-1.46.7-2.07.73-3.08.56-1.01-.17-1.37-.45-1.95-1.4-.59-.95-.83-1.83-.99-3.36-.16-1.53-.03-2.67.18-4.28.21-1.62.62-2.64.86-3.8.25-1.16.43-1.69.38-2-.05-.31-.24-.22-.63.45-.39.67-.55,1.49-1.33,2.9-.78,1.41-1.38,2.52-2.56,4.15-1.18,1.63-1.98,2.63-3.36,4.01-1.38,1.38-2.25,2.06-3.55,2.88s-2.01,1-2.97,1.2c-.96.2-1.32.18-1.84-.19s-.69-.77-.76-1.69c-.08-.91-.07-1.62.37-2.87.44-1.24.85-2.06,1.81-3.36.96-1.3,1.7-2.04,2.97-3.14,1.27-1.1,2.07-1.59,3.4-2.37,1.33-.77,2.07-.99,3.25-1.5,1.18-.51,1.85-.6,2.63-1.05.79-.44,1.07-.73,1.3-1.18.23-.45.21-.74-.16-1.08-.36-.34-.71-.51-1.67-.62-.97-.11-1.65-.06-3.15.08-1.51.14-2.43.27-4.37.61-1.94.34-3.15.57-5.33,1.09-2.18.52-3.41.92-5.58,1.52-2.16.6-3.36.97-5.25,1.48-1.89.51-2.86.71-4.18,1.06-1.32.35-1.72.49-2.42.72-.7.23-.89.25-1.09.43-.21.18-.2.35.07.47"/>
  </g>
</svg>